<mxfile host="Electron" modified="2023-05-09T12:17:49.228Z" agent="Mozilla/5.0 (Macintosh; Intel Mac OS X 10_15_7) AppleWebKit/537.36 (KHTML, like Gecko) draw.io/21.2.8 Chrome/112.0.5615.165 Electron/24.2.0 Safari/537.36" etag="ovGUtiI2JonZjeP_phbQ" version="21.2.8" type="device" pages="6">
  <diagram name="第 1 页" id="TVg9jb5MkvQMjRC2Ku_h">
    <mxGraphModel dx="638" dy="616" grid="0" gridSize="10" guides="1" tooltips="1" connect="1" arrows="1" fold="1" page="1" pageScale="1" pageWidth="827" pageHeight="1169" math="0" shadow="0">
      <root>
        <mxCell id="0" />
        <mxCell id="1" parent="0" />
        <mxCell id="uUkK4hOQ7Pqk5P5EWZQf-1" value="" style="shape=waypoint;sketch=0;fillStyle=solid;size=6;pointerEvents=1;points=[];fillColor=none;resizable=0;rotatable=0;perimeter=centerPerimeter;snapToPoint=1;strokeWidth=3;fontSize=12;fontStyle=1" parent="1" vertex="1">
          <mxGeometry x="275" y="312" width="20" height="20" as="geometry" />
        </mxCell>
        <mxCell id="uUkK4hOQ7Pqk5P5EWZQf-2" value="" style="line;strokeWidth=2;html=1;direction=south;fontSize=12;fontStyle=1" parent="1" vertex="1">
          <mxGeometry x="280" y="287" width="10" height="365" as="geometry" />
        </mxCell>
        <mxCell id="uUkK4hOQ7Pqk5P5EWZQf-3" value="" style="shape=waypoint;sketch=0;fillStyle=solid;size=6;pointerEvents=1;points=[];fillColor=none;resizable=0;rotatable=0;perimeter=centerPerimeter;snapToPoint=1;strokeWidth=3;fontSize=12;fontStyle=1" parent="1" vertex="1">
          <mxGeometry x="275" y="342" width="20" height="20" as="geometry" />
        </mxCell>
        <mxCell id="uUkK4hOQ7Pqk5P5EWZQf-4" value="a" style="text;html=1;align=center;verticalAlign=middle;resizable=0;points=[];autosize=1;strokeColor=none;fillColor=none;fontSize=12;fontStyle=1" parent="1" vertex="1">
          <mxGeometry x="260" y="307" width="30" height="30" as="geometry" />
        </mxCell>
        <mxCell id="uUkK4hOQ7Pqk5P5EWZQf-38" style="rounded=0;orthogonalLoop=1;jettySize=auto;html=1;exitX=1.2;exitY=0.35;exitDx=0;exitDy=0;exitPerimeter=0;" parent="1" source="uUkK4hOQ7Pqk5P5EWZQf-3" target="uUkK4hOQ7Pqk5P5EWZQf-22" edge="1">
          <mxGeometry relative="1" as="geometry" />
        </mxCell>
        <mxCell id="uUkK4hOQ7Pqk5P5EWZQf-5" value="b" style="text;html=1;align=center;verticalAlign=middle;resizable=0;points=[];autosize=1;strokeColor=none;fillColor=none;fontSize=12;fontStyle=1" parent="1" vertex="1">
          <mxGeometry x="260" y="337" width="30" height="30" as="geometry" />
        </mxCell>
        <mxCell id="uUkK4hOQ7Pqk5P5EWZQf-6" value="" style="shape=waypoint;sketch=0;fillStyle=solid;size=6;pointerEvents=1;points=[];fillColor=none;resizable=0;rotatable=0;perimeter=centerPerimeter;snapToPoint=1;strokeWidth=3;fontSize=12;fontStyle=1" parent="1" vertex="1">
          <mxGeometry x="275" y="542" width="20" height="20" as="geometry" />
        </mxCell>
        <mxCell id="uUkK4hOQ7Pqk5P5EWZQf-7" value="" style="shape=waypoint;sketch=0;fillStyle=solid;size=6;pointerEvents=1;points=[];fillColor=none;resizable=0;rotatable=0;perimeter=centerPerimeter;snapToPoint=1;strokeWidth=3;fontSize=12;fontStyle=1" parent="1" vertex="1">
          <mxGeometry x="275" y="597" width="20" height="20" as="geometry" />
        </mxCell>
        <mxCell id="uUkK4hOQ7Pqk5P5EWZQf-8" value="d" style="text;html=1;align=center;verticalAlign=middle;resizable=0;points=[];autosize=1;strokeColor=none;fillColor=none;fontSize=12;fontStyle=1" parent="1" vertex="1">
          <mxGeometry x="260" y="537" width="30" height="30" as="geometry" />
        </mxCell>
        <mxCell id="uUkK4hOQ7Pqk5P5EWZQf-9" value="e" style="text;html=1;align=center;verticalAlign=middle;resizable=0;points=[];autosize=1;strokeColor=none;fillColor=none;fontSize=12;fontStyle=1" parent="1" vertex="1">
          <mxGeometry x="260" y="592" width="30" height="30" as="geometry" />
        </mxCell>
        <mxCell id="uUkK4hOQ7Pqk5P5EWZQf-10" value="" style="shape=waypoint;sketch=0;fillStyle=solid;size=6;pointerEvents=1;points=[];fillColor=none;resizable=0;rotatable=0;perimeter=centerPerimeter;snapToPoint=1;strokeWidth=3;fontSize=12;fontStyle=1" parent="1" vertex="1">
          <mxGeometry x="275" y="487" width="20" height="20" as="geometry" />
        </mxCell>
        <mxCell id="uUkK4hOQ7Pqk5P5EWZQf-11" value="c" style="text;html=1;align=center;verticalAlign=middle;resizable=0;points=[];autosize=1;strokeColor=none;fillColor=none;fontSize=12;fontStyle=1" parent="1" vertex="1">
          <mxGeometry x="260" y="482" width="30" height="30" as="geometry" />
        </mxCell>
        <mxCell id="uUkK4hOQ7Pqk5P5EWZQf-13" value="" style="line;strokeWidth=2;html=1;direction=south;fontSize=12;fontStyle=1" parent="1" vertex="1">
          <mxGeometry x="425" y="285.5" width="10" height="365" as="geometry" />
        </mxCell>
        <mxCell id="uUkK4hOQ7Pqk5P5EWZQf-17" value="" style="shape=waypoint;sketch=0;fillStyle=solid;size=6;pointerEvents=1;points=[];fillColor=none;resizable=0;rotatable=0;perimeter=centerPerimeter;snapToPoint=1;strokeWidth=3;fontSize=12;fontStyle=1" parent="1" vertex="1">
          <mxGeometry x="420" y="428" width="20" height="20" as="geometry" />
        </mxCell>
        <mxCell id="uUkK4hOQ7Pqk5P5EWZQf-18" value="" style="shape=waypoint;sketch=0;fillStyle=solid;size=6;pointerEvents=1;points=[];fillColor=none;resizable=0;rotatable=0;perimeter=centerPerimeter;snapToPoint=1;strokeWidth=3;fontSize=12;fontStyle=1" parent="1" vertex="1">
          <mxGeometry x="420" y="483" width="20" height="20" as="geometry" />
        </mxCell>
        <mxCell id="uUkK4hOQ7Pqk5P5EWZQf-19" value="g" style="text;html=1;align=center;verticalAlign=middle;resizable=0;points=[];autosize=1;strokeColor=none;fillColor=none;fontSize=12;fontStyle=1" parent="1" vertex="1">
          <mxGeometry x="405" y="423" width="30" height="30" as="geometry" />
        </mxCell>
        <mxCell id="uUkK4hOQ7Pqk5P5EWZQf-20" value="h" style="text;html=1;align=center;verticalAlign=middle;resizable=0;points=[];autosize=1;strokeColor=none;fillColor=none;fontSize=12;fontStyle=1" parent="1" vertex="1">
          <mxGeometry x="405" y="477" width="30" height="30" as="geometry" />
        </mxCell>
        <mxCell id="uUkK4hOQ7Pqk5P5EWZQf-21" value="" style="shape=waypoint;sketch=0;fillStyle=solid;size=6;pointerEvents=1;points=[];fillColor=none;resizable=0;rotatable=0;perimeter=centerPerimeter;snapToPoint=1;strokeWidth=3;fontSize=12;fontStyle=1" parent="1" vertex="1">
          <mxGeometry x="420" y="373" width="20" height="20" as="geometry" />
        </mxCell>
        <mxCell id="uUkK4hOQ7Pqk5P5EWZQf-22" value="f" style="text;html=1;align=center;verticalAlign=middle;resizable=0;points=[];autosize=1;strokeColor=none;fillColor=none;fontSize=12;fontStyle=1" parent="1" vertex="1">
          <mxGeometry x="405" y="368" width="30" height="30" as="geometry" />
        </mxCell>
        <mxCell id="uUkK4hOQ7Pqk5P5EWZQf-23" value="P1" style="text;html=1;align=center;verticalAlign=middle;resizable=0;points=[];autosize=1;strokeColor=none;fillColor=none;fontStyle=1;fontSize=14;" parent="1" vertex="1">
          <mxGeometry x="265" y="240" width="40" height="30" as="geometry" />
        </mxCell>
        <mxCell id="uUkK4hOQ7Pqk5P5EWZQf-24" value="P2" style="text;html=1;align=center;verticalAlign=middle;resizable=0;points=[];autosize=1;strokeColor=none;fillColor=none;fontStyle=1;fontSize=14;" parent="1" vertex="1">
          <mxGeometry x="410" y="241" width="40" height="30" as="geometry" />
        </mxCell>
        <mxCell id="uUkK4hOQ7Pqk5P5EWZQf-25" value="" style="line;strokeWidth=2;html=1;direction=south;fontSize=12;fontStyle=1" parent="1" vertex="1">
          <mxGeometry x="571" y="287" width="10" height="365" as="geometry" />
        </mxCell>
        <mxCell id="uUkK4hOQ7Pqk5P5EWZQf-26" value="" style="shape=waypoint;sketch=0;fillStyle=solid;size=6;pointerEvents=1;points=[];fillColor=none;resizable=0;rotatable=0;perimeter=centerPerimeter;snapToPoint=1;strokeWidth=3;fontSize=12;fontStyle=1" parent="1" vertex="1">
          <mxGeometry x="566" y="517" width="20" height="20" as="geometry" />
        </mxCell>
        <mxCell id="uUkK4hOQ7Pqk5P5EWZQf-27" value="" style="shape=waypoint;sketch=0;fillStyle=solid;size=6;pointerEvents=1;points=[];fillColor=none;resizable=0;rotatable=0;perimeter=centerPerimeter;snapToPoint=1;strokeWidth=3;fontSize=12;fontStyle=1" parent="1" vertex="1">
          <mxGeometry x="566" y="562" width="20" height="20" as="geometry" />
        </mxCell>
        <mxCell id="uUkK4hOQ7Pqk5P5EWZQf-28" value="" style="shape=waypoint;sketch=0;fillStyle=solid;size=6;pointerEvents=1;points=[];fillColor=none;resizable=0;rotatable=0;perimeter=centerPerimeter;snapToPoint=1;strokeWidth=3;fontSize=12;fontStyle=1;fontColor=default;labelBackgroundColor=none;" parent="1" vertex="1">
          <mxGeometry x="566" y="353" width="20" height="20" as="geometry" />
        </mxCell>
        <mxCell id="uUkK4hOQ7Pqk5P5EWZQf-29" value="P3" style="text;html=1;align=center;verticalAlign=middle;resizable=0;points=[];autosize=1;strokeColor=none;fillColor=none;fontStyle=1;fontSize=14;" parent="1" vertex="1">
          <mxGeometry x="556" y="242.5" width="40" height="30" as="geometry" />
        </mxCell>
        <mxCell id="uUkK4hOQ7Pqk5P5EWZQf-31" value="i" style="text;html=1;align=center;verticalAlign=middle;resizable=0;points=[];autosize=1;strokeColor=none;fillColor=none;fontSize=12;fontStyle=1" parent="1" vertex="1">
          <mxGeometry x="551" y="348" width="30" height="30" as="geometry" />
        </mxCell>
        <mxCell id="uUkK4hOQ7Pqk5P5EWZQf-32" value="j" style="text;html=1;align=center;verticalAlign=middle;resizable=0;points=[];autosize=1;strokeColor=none;fillColor=none;fontSize=12;fontStyle=1" parent="1" vertex="1">
          <mxGeometry x="551" y="512" width="30" height="30" as="geometry" />
        </mxCell>
        <mxCell id="uUkK4hOQ7Pqk5P5EWZQf-33" value="k" style="text;html=1;align=center;verticalAlign=middle;resizable=0;points=[];autosize=1;strokeColor=none;fillColor=none;fontSize=12;fontStyle=1" parent="1" vertex="1">
          <mxGeometry x="551" y="557" width="30" height="30" as="geometry" />
        </mxCell>
        <mxCell id="flqku2sw1WM-PE3uM3Uu-1" value="j" style="text;html=1;align=center;verticalAlign=middle;resizable=0;points=[];autosize=1;strokeColor=none;fillColor=none;fontSize=12;fontStyle=1" vertex="1" parent="1">
          <mxGeometry x="404" y="520" width="30" height="30" as="geometry" />
        </mxCell>
      </root>
    </mxGraphModel>
  </diagram>
  <diagram name="背景" id="_UaA_d2bYbqkDxwN5GGY">
    <mxGraphModel dx="608" dy="587" grid="1" gridSize="10" guides="1" tooltips="1" connect="1" arrows="1" fold="1" page="1" pageScale="1" pageWidth="827" pageHeight="1169" math="0" shadow="0">
      <root>
        <mxCell id="gcpTbUjEfD_XlmOCZLJa-0" />
        <mxCell id="gcpTbUjEfD_XlmOCZLJa-1" parent="gcpTbUjEfD_XlmOCZLJa-0" />
        <mxCell id="gcpTbUjEfD_XlmOCZLJa-14" value="" style="line;strokeWidth=2;html=1;direction=west;fontSize=12;fontStyle=1" vertex="1" parent="gcpTbUjEfD_XlmOCZLJa-1">
          <mxGeometry x="271" y="455" width="418" height="10" as="geometry" />
        </mxCell>
        <mxCell id="gcpTbUjEfD_XlmOCZLJa-15" value="" style="shape=waypoint;sketch=0;fillStyle=solid;size=6;pointerEvents=1;points=[];fillColor=none;resizable=0;rotatable=0;perimeter=centerPerimeter;snapToPoint=1;strokeWidth=3;fontSize=12;fontStyle=1" vertex="1" parent="gcpTbUjEfD_XlmOCZLJa-1">
          <mxGeometry x="419" y="450" width="20" height="20" as="geometry" />
        </mxCell>
        <mxCell id="gcpTbUjEfD_XlmOCZLJa-16" value="" style="shape=waypoint;sketch=0;fillStyle=solid;size=6;pointerEvents=1;points=[];fillColor=none;resizable=0;rotatable=0;perimeter=centerPerimeter;snapToPoint=1;strokeWidth=3;fontSize=12;fontStyle=1" vertex="1" parent="gcpTbUjEfD_XlmOCZLJa-1">
          <mxGeometry x="470" y="450" width="20" height="20" as="geometry" />
        </mxCell>
        <mxCell id="gcpTbUjEfD_XlmOCZLJa-17" value="g" style="text;html=1;align=center;verticalAlign=middle;resizable=0;points=[];autosize=1;strokeColor=none;fillColor=none;fontSize=12;fontStyle=1" vertex="1" parent="gcpTbUjEfD_XlmOCZLJa-1">
          <mxGeometry x="414" y="429" width="30" height="30" as="geometry" />
        </mxCell>
        <mxCell id="gcpTbUjEfD_XlmOCZLJa-18" value="h" style="text;html=1;align=center;verticalAlign=middle;resizable=0;points=[];autosize=1;strokeColor=none;fillColor=none;fontSize=12;fontStyle=1" vertex="1" parent="gcpTbUjEfD_XlmOCZLJa-1">
          <mxGeometry x="464.5" y="433" width="30" height="30" as="geometry" />
        </mxCell>
        <mxCell id="gcpTbUjEfD_XlmOCZLJa-19" value="" style="shape=waypoint;sketch=0;fillStyle=solid;size=6;pointerEvents=1;points=[];fillColor=none;resizable=0;rotatable=0;perimeter=centerPerimeter;snapToPoint=1;strokeWidth=3;fontSize=12;fontStyle=1" vertex="1" parent="gcpTbUjEfD_XlmOCZLJa-1">
          <mxGeometry x="350" y="450" width="20" height="20" as="geometry" />
        </mxCell>
        <mxCell id="gcpTbUjEfD_XlmOCZLJa-20" value="f" style="text;html=1;align=center;verticalAlign=middle;resizable=0;points=[];autosize=1;strokeColor=none;fillColor=none;fontSize=12;fontStyle=1" vertex="1" parent="gcpTbUjEfD_XlmOCZLJa-1">
          <mxGeometry x="345" y="433" width="30" height="30" as="geometry" />
        </mxCell>
        <mxCell id="gcpTbUjEfD_XlmOCZLJa-22" value="P2" style="text;html=1;align=center;verticalAlign=middle;resizable=0;points=[];autosize=1;strokeColor=none;fillColor=none;fontStyle=1;fontSize=14;" vertex="1" parent="gcpTbUjEfD_XlmOCZLJa-1">
          <mxGeometry x="681" y="445" width="40" height="30" as="geometry" />
        </mxCell>
        <mxCell id="gcpTbUjEfD_XlmOCZLJa-23" value="" style="line;strokeWidth=2;html=1;direction=west;fontSize=12;fontStyle=1" vertex="1" parent="gcpTbUjEfD_XlmOCZLJa-1">
          <mxGeometry x="271" y="550" width="417" height="10" as="geometry" />
        </mxCell>
        <mxCell id="gcpTbUjEfD_XlmOCZLJa-24" value="" style="shape=waypoint;sketch=0;fillStyle=solid;size=6;pointerEvents=1;points=[];fillColor=none;resizable=0;rotatable=0;perimeter=centerPerimeter;snapToPoint=1;strokeWidth=3;fontSize=12;fontStyle=1" vertex="1" parent="gcpTbUjEfD_XlmOCZLJa-1">
          <mxGeometry x="470" y="545" width="20" height="20" as="geometry" />
        </mxCell>
        <mxCell id="gcpTbUjEfD_XlmOCZLJa-25" value="" style="shape=waypoint;sketch=0;fillStyle=solid;size=6;pointerEvents=1;points=[];fillColor=none;resizable=0;rotatable=0;perimeter=centerPerimeter;snapToPoint=1;strokeWidth=3;fontSize=12;fontStyle=1" vertex="1" parent="gcpTbUjEfD_XlmOCZLJa-1">
          <mxGeometry x="658" y="545" width="20" height="20" as="geometry" />
        </mxCell>
        <mxCell id="gcpTbUjEfD_XlmOCZLJa-26" value="" style="shape=waypoint;sketch=0;fillStyle=solid;size=6;pointerEvents=1;points=[];fillColor=none;resizable=0;rotatable=0;perimeter=centerPerimeter;snapToPoint=1;strokeWidth=3;fontSize=12;fontStyle=1;fontColor=default;labelBackgroundColor=none;" vertex="1" parent="gcpTbUjEfD_XlmOCZLJa-1">
          <mxGeometry x="325" y="545" width="20" height="20" as="geometry" />
        </mxCell>
        <mxCell id="gcpTbUjEfD_XlmOCZLJa-27" value="P3" style="text;html=1;align=center;verticalAlign=middle;resizable=0;points=[];autosize=1;strokeColor=none;fillColor=none;fontStyle=1;fontSize=14;" vertex="1" parent="gcpTbUjEfD_XlmOCZLJa-1">
          <mxGeometry x="681" y="540" width="40" height="30" as="geometry" />
        </mxCell>
        <mxCell id="gcpTbUjEfD_XlmOCZLJa-28" value="i" style="text;html=1;align=center;verticalAlign=middle;resizable=0;points=[];autosize=1;strokeColor=none;fillColor=none;fontSize=12;fontStyle=1" vertex="1" parent="gcpTbUjEfD_XlmOCZLJa-1">
          <mxGeometry x="320" y="528" width="30" height="30" as="geometry" />
        </mxCell>
        <mxCell id="gcpTbUjEfD_XlmOCZLJa-29" value="j" style="text;html=1;align=center;verticalAlign=middle;resizable=0;points=[];autosize=1;strokeColor=none;fillColor=none;fontSize=12;fontStyle=1" vertex="1" parent="gcpTbUjEfD_XlmOCZLJa-1">
          <mxGeometry x="464.5" y="528" width="30" height="30" as="geometry" />
        </mxCell>
        <mxCell id="gcpTbUjEfD_XlmOCZLJa-30" value="k" style="text;html=1;align=center;verticalAlign=middle;resizable=0;points=[];autosize=1;strokeColor=none;fillColor=none;fontSize=12;fontStyle=1" vertex="1" parent="gcpTbUjEfD_XlmOCZLJa-1">
          <mxGeometry x="653" y="528" width="30" height="30" as="geometry" />
        </mxCell>
        <mxCell id="gcpTbUjEfD_XlmOCZLJa-2" value="" style="shape=waypoint;sketch=0;fillStyle=solid;size=6;pointerEvents=1;points=[];fillColor=none;resizable=0;rotatable=0;perimeter=centerPerimeter;snapToPoint=1;strokeWidth=3;fontSize=12;fontStyle=1;container=0;" vertex="1" parent="gcpTbUjEfD_XlmOCZLJa-1">
          <mxGeometry x="288" y="365" width="20" height="20" as="geometry" />
        </mxCell>
        <mxCell id="gcpTbUjEfD_XlmOCZLJa-3" value="" style="line;strokeWidth=2;html=1;direction=west;fontSize=12;fontStyle=1;container=0;" vertex="1" parent="gcpTbUjEfD_XlmOCZLJa-1">
          <mxGeometry x="271" y="370" width="418" height="10" as="geometry" />
        </mxCell>
        <mxCell id="gcpTbUjEfD_XlmOCZLJa-4" value="" style="shape=waypoint;sketch=0;fillStyle=solid;size=6;pointerEvents=1;points=[];fillColor=none;resizable=0;rotatable=0;perimeter=centerPerimeter;snapToPoint=1;strokeWidth=3;fontSize=12;fontStyle=1;container=0;" vertex="1" parent="gcpTbUjEfD_XlmOCZLJa-1">
          <mxGeometry x="323" y="365" width="20" height="20" as="geometry" />
        </mxCell>
        <mxCell id="gcpTbUjEfD_XlmOCZLJa-5" value="a" style="text;html=1;align=center;verticalAlign=middle;resizable=0;points=[];autosize=1;strokeColor=none;fillColor=none;fontSize=12;fontStyle=1;container=0;" vertex="1" parent="gcpTbUjEfD_XlmOCZLJa-1">
          <mxGeometry x="283" y="347" width="30" height="30" as="geometry" />
        </mxCell>
        <mxCell id="gcpTbUjEfD_XlmOCZLJa-7" value="b" style="text;html=1;align=center;verticalAlign=middle;resizable=0;points=[];autosize=1;strokeColor=none;fillColor=none;fontSize=12;fontStyle=1;container=0;" vertex="1" parent="gcpTbUjEfD_XlmOCZLJa-1">
          <mxGeometry x="318" y="347" width="30" height="30" as="geometry" />
        </mxCell>
        <mxCell id="gcpTbUjEfD_XlmOCZLJa-8" value="" style="shape=waypoint;sketch=0;fillStyle=solid;size=6;pointerEvents=1;points=[];fillColor=none;resizable=0;rotatable=0;perimeter=centerPerimeter;snapToPoint=1;strokeWidth=3;fontSize=12;fontStyle=1;container=0;" vertex="1" parent="gcpTbUjEfD_XlmOCZLJa-1">
          <mxGeometry x="578" y="365" width="20" height="20" as="geometry" />
        </mxCell>
        <mxCell id="gcpTbUjEfD_XlmOCZLJa-9" value="" style="shape=waypoint;sketch=0;fillStyle=solid;size=6;pointerEvents=1;points=[];fillColor=none;resizable=0;rotatable=0;perimeter=centerPerimeter;snapToPoint=1;strokeWidth=3;fontSize=12;fontStyle=1;container=0;" vertex="1" parent="gcpTbUjEfD_XlmOCZLJa-1">
          <mxGeometry x="643" y="365" width="20" height="20" as="geometry" />
        </mxCell>
        <mxCell id="gcpTbUjEfD_XlmOCZLJa-10" value="d" style="text;html=1;align=center;verticalAlign=middle;resizable=0;points=[];autosize=1;strokeColor=none;fillColor=none;fontSize=12;fontStyle=1;container=0;" vertex="1" parent="gcpTbUjEfD_XlmOCZLJa-1">
          <mxGeometry x="573" y="347" width="30" height="30" as="geometry" />
        </mxCell>
        <mxCell id="gcpTbUjEfD_XlmOCZLJa-11" value="e" style="text;html=1;align=center;verticalAlign=middle;resizable=0;points=[];autosize=1;strokeColor=none;fillColor=none;fontSize=12;fontStyle=1;container=0;" vertex="1" parent="gcpTbUjEfD_XlmOCZLJa-1">
          <mxGeometry x="638" y="347" width="30" height="30" as="geometry" />
        </mxCell>
        <mxCell id="gcpTbUjEfD_XlmOCZLJa-12" value="" style="shape=waypoint;sketch=0;fillStyle=solid;size=6;pointerEvents=1;points=[];fillColor=none;resizable=0;rotatable=0;perimeter=centerPerimeter;snapToPoint=1;strokeWidth=3;fontSize=12;fontStyle=1;container=0;" vertex="1" parent="gcpTbUjEfD_XlmOCZLJa-1">
          <mxGeometry x="538" y="365" width="20" height="20" as="geometry" />
        </mxCell>
        <mxCell id="gcpTbUjEfD_XlmOCZLJa-13" value="c" style="text;html=1;align=center;verticalAlign=middle;resizable=0;points=[];autosize=1;strokeColor=none;fillColor=none;fontSize=12;fontStyle=1;container=0;" vertex="1" parent="gcpTbUjEfD_XlmOCZLJa-1">
          <mxGeometry x="533" y="347" width="30" height="30" as="geometry" />
        </mxCell>
        <mxCell id="gcpTbUjEfD_XlmOCZLJa-21" value="P1" style="text;html=1;align=center;verticalAlign=middle;resizable=0;points=[];autosize=1;strokeColor=none;fillColor=none;fontStyle=1;fontSize=14;container=0;" vertex="1" parent="gcpTbUjEfD_XlmOCZLJa-1">
          <mxGeometry x="681" y="360" width="40" height="30" as="geometry" />
        </mxCell>
        <mxCell id="VePGji9oBad5CEiWIuGC-1" value="" style="endArrow=classic;html=1;rounded=0;fillColor=#f5f5f5;strokeColor=#666666;" edge="1" parent="gcpTbUjEfD_XlmOCZLJa-1">
          <mxGeometry width="50" height="50" relative="1" as="geometry">
            <mxPoint x="335" y="386" as="sourcePoint" />
            <mxPoint x="355" y="442" as="targetPoint" />
            <Array as="points" />
          </mxGeometry>
        </mxCell>
        <mxCell id="VePGji9oBad5CEiWIuGC-3" value="" style="endArrow=classic;html=1;rounded=0;entryX=0.126;entryY=1.031;entryDx=0;entryDy=0;entryPerimeter=0;fillColor=#f5f5f5;strokeColor=#666666;" edge="1" parent="gcpTbUjEfD_XlmOCZLJa-1">
          <mxGeometry width="50" height="50" relative="1" as="geometry">
            <mxPoint x="342" y="543.7553191489362" as="sourcePoint" />
            <mxPoint x="421" y="474" as="targetPoint" />
            <Array as="points" />
          </mxGeometry>
        </mxCell>
        <mxCell id="VePGji9oBad5CEiWIuGC-4" value="" style="endArrow=classic;html=1;rounded=0;fillColor=#f5f5f5;strokeColor=#666666;" edge="1" parent="gcpTbUjEfD_XlmOCZLJa-1">
          <mxGeometry width="50" height="50" relative="1" as="geometry">
            <mxPoint x="490" y="449.99531914893623" as="sourcePoint" />
            <mxPoint x="586" y="391" as="targetPoint" />
            <Array as="points" />
          </mxGeometry>
        </mxCell>
        <mxCell id="VePGji9oBad5CEiWIuGC-5" value="" style="endArrow=none;html=1;rounded=0;endFill=0;startArrow=classic;startFill=1;fillColor=#f5f5f5;strokeColor=#666666;" edge="1" parent="gcpTbUjEfD_XlmOCZLJa-1">
          <mxGeometry width="50" height="50" relative="1" as="geometry">
            <mxPoint x="663" y="522" as="sourcePoint" />
            <mxPoint x="654" y="392" as="targetPoint" />
            <Array as="points" />
          </mxGeometry>
        </mxCell>
      </root>
    </mxGraphModel>
  </diagram>
  <diagram id="ED29MfWL8SaGdVaJqEZy" name="P1">
    <mxGraphModel dx="638" dy="616" grid="1" gridSize="10" guides="1" tooltips="1" connect="1" arrows="1" fold="1" page="1" pageScale="1" pageWidth="827" pageHeight="1169" math="0" shadow="0">
      <root>
        <mxCell id="0" />
        <mxCell id="1" parent="0" />
        <mxCell id="DU5lfOHAwdRszaiGKBXR-1" value="" style="line;strokeWidth=2;html=1;direction=west;fontSize=12;fontStyle=1" vertex="1" parent="1">
          <mxGeometry x="320" y="728" width="418" height="10" as="geometry" />
        </mxCell>
        <mxCell id="DU5lfOHAwdRszaiGKBXR-2" value="" style="shape=waypoint;sketch=0;fillStyle=solid;size=6;pointerEvents=1;points=[];fillColor=none;resizable=0;rotatable=0;perimeter=centerPerimeter;snapToPoint=1;strokeWidth=3;fontSize=12;fontStyle=1" vertex="1" parent="1">
          <mxGeometry x="468" y="723" width="20" height="20" as="geometry" />
        </mxCell>
        <mxCell id="DU5lfOHAwdRszaiGKBXR-3" value="" style="shape=waypoint;sketch=0;fillStyle=solid;size=6;pointerEvents=1;points=[];fillColor=none;resizable=0;rotatable=0;perimeter=centerPerimeter;snapToPoint=1;strokeWidth=3;fontSize=12;fontStyle=1" vertex="1" parent="1">
          <mxGeometry x="519" y="723" width="20" height="20" as="geometry" />
        </mxCell>
        <mxCell id="DU5lfOHAwdRszaiGKBXR-4" value="g" style="text;html=1;align=center;verticalAlign=middle;resizable=0;points=[];autosize=1;strokeColor=none;fillColor=none;fontSize=12;fontStyle=1" vertex="1" parent="1">
          <mxGeometry x="463" y="702" width="30" height="30" as="geometry" />
        </mxCell>
        <mxCell id="DU5lfOHAwdRszaiGKBXR-5" value="h" style="text;html=1;align=center;verticalAlign=middle;resizable=0;points=[];autosize=1;strokeColor=none;fillColor=none;fontSize=12;fontStyle=1" vertex="1" parent="1">
          <mxGeometry x="513.5" y="706" width="30" height="30" as="geometry" />
        </mxCell>
        <mxCell id="DU5lfOHAwdRszaiGKBXR-6" value="" style="shape=waypoint;sketch=0;fillStyle=solid;size=6;pointerEvents=1;points=[];fillColor=none;resizable=0;rotatable=0;perimeter=centerPerimeter;snapToPoint=1;strokeWidth=3;fontSize=12;fontStyle=1" vertex="1" parent="1">
          <mxGeometry x="399" y="723" width="20" height="20" as="geometry" />
        </mxCell>
        <mxCell id="DU5lfOHAwdRszaiGKBXR-7" value="f" style="text;html=1;align=center;verticalAlign=middle;resizable=0;points=[];autosize=1;strokeColor=none;fillColor=none;fontSize=12;fontStyle=1" vertex="1" parent="1">
          <mxGeometry x="394" y="706" width="30" height="30" as="geometry" />
        </mxCell>
        <mxCell id="DU5lfOHAwdRszaiGKBXR-8" value="P2" style="text;html=1;align=center;verticalAlign=middle;resizable=0;points=[];autosize=1;strokeColor=none;fillColor=none;fontStyle=1;fontSize=14;" vertex="1" parent="1">
          <mxGeometry x="730" y="718" width="40" height="30" as="geometry" />
        </mxCell>
        <mxCell id="DU5lfOHAwdRszaiGKBXR-9" value="" style="line;strokeWidth=2;html=1;direction=west;fontSize=12;fontStyle=1" vertex="1" parent="1">
          <mxGeometry x="320" y="823" width="417" height="10" as="geometry" />
        </mxCell>
        <mxCell id="DU5lfOHAwdRszaiGKBXR-10" value="" style="shape=waypoint;sketch=0;fillStyle=solid;size=6;pointerEvents=1;points=[];fillColor=none;resizable=0;rotatable=0;perimeter=centerPerimeter;snapToPoint=1;strokeWidth=3;fontSize=12;fontStyle=1" vertex="1" parent="1">
          <mxGeometry x="519" y="818" width="20" height="20" as="geometry" />
        </mxCell>
        <mxCell id="DU5lfOHAwdRszaiGKBXR-11" value="" style="shape=waypoint;sketch=0;fillStyle=solid;size=6;pointerEvents=1;points=[];fillColor=none;resizable=0;rotatable=0;perimeter=centerPerimeter;snapToPoint=1;strokeWidth=3;fontSize=12;fontStyle=1" vertex="1" parent="1">
          <mxGeometry x="707" y="818" width="20" height="20" as="geometry" />
        </mxCell>
        <mxCell id="DU5lfOHAwdRszaiGKBXR-12" value="" style="shape=waypoint;sketch=0;fillStyle=solid;size=6;pointerEvents=1;points=[];fillColor=none;resizable=0;rotatable=0;perimeter=centerPerimeter;snapToPoint=1;strokeWidth=3;fontSize=12;fontStyle=1;fontColor=default;labelBackgroundColor=none;" vertex="1" parent="1">
          <mxGeometry x="374" y="818" width="20" height="20" as="geometry" />
        </mxCell>
        <mxCell id="DU5lfOHAwdRszaiGKBXR-13" value="P3" style="text;html=1;align=center;verticalAlign=middle;resizable=0;points=[];autosize=1;strokeColor=none;fillColor=none;fontStyle=1;fontSize=14;" vertex="1" parent="1">
          <mxGeometry x="730" y="813" width="40" height="30" as="geometry" />
        </mxCell>
        <mxCell id="DU5lfOHAwdRszaiGKBXR-14" value="i" style="text;html=1;align=center;verticalAlign=middle;resizable=0;points=[];autosize=1;strokeColor=none;fillColor=none;fontSize=12;fontStyle=1" vertex="1" parent="1">
          <mxGeometry x="369" y="801" width="30" height="30" as="geometry" />
        </mxCell>
        <mxCell id="DU5lfOHAwdRszaiGKBXR-15" value="j" style="text;html=1;align=center;verticalAlign=middle;resizable=0;points=[];autosize=1;strokeColor=none;fillColor=none;fontSize=12;fontStyle=1" vertex="1" parent="1">
          <mxGeometry x="513.5" y="801" width="30" height="30" as="geometry" />
        </mxCell>
        <mxCell id="DU5lfOHAwdRszaiGKBXR-16" value="k" style="text;html=1;align=center;verticalAlign=middle;resizable=0;points=[];autosize=1;strokeColor=none;fillColor=none;fontSize=12;fontStyle=1" vertex="1" parent="1">
          <mxGeometry x="702" y="801" width="30" height="30" as="geometry" />
        </mxCell>
        <mxCell id="DU5lfOHAwdRszaiGKBXR-17" value="" style="shape=waypoint;sketch=0;fillStyle=solid;size=6;pointerEvents=1;points=[];fillColor=none;resizable=0;rotatable=0;perimeter=centerPerimeter;snapToPoint=1;strokeWidth=3;fontSize=12;fontStyle=1;container=0;" vertex="1" parent="1">
          <mxGeometry x="337" y="638" width="20" height="20" as="geometry" />
        </mxCell>
        <mxCell id="DU5lfOHAwdRszaiGKBXR-18" value="" style="line;strokeWidth=2;html=1;direction=west;fontSize=12;fontStyle=1;container=0;" vertex="1" parent="1">
          <mxGeometry x="320" y="643" width="418" height="10" as="geometry" />
        </mxCell>
        <mxCell id="DU5lfOHAwdRszaiGKBXR-19" value="" style="shape=waypoint;sketch=0;fillStyle=solid;size=6;pointerEvents=1;points=[];fillColor=none;resizable=0;rotatable=0;perimeter=centerPerimeter;snapToPoint=1;strokeWidth=3;fontSize=12;fontStyle=1;container=0;" vertex="1" parent="1">
          <mxGeometry x="372" y="638" width="20" height="20" as="geometry" />
        </mxCell>
        <mxCell id="DU5lfOHAwdRszaiGKBXR-20" value="a" style="text;html=1;align=center;verticalAlign=middle;resizable=0;points=[];autosize=1;strokeColor=none;fillColor=none;fontSize=12;fontStyle=1;container=0;" vertex="1" parent="1">
          <mxGeometry x="332" y="620" width="30" height="30" as="geometry" />
        </mxCell>
        <mxCell id="DU5lfOHAwdRszaiGKBXR-21" value="b" style="text;html=1;align=center;verticalAlign=middle;resizable=0;points=[];autosize=1;strokeColor=none;fillColor=none;fontSize=12;fontStyle=1;container=0;" vertex="1" parent="1">
          <mxGeometry x="367" y="620" width="30" height="30" as="geometry" />
        </mxCell>
        <mxCell id="DU5lfOHAwdRszaiGKBXR-22" value="" style="shape=waypoint;sketch=0;fillStyle=solid;size=6;pointerEvents=1;points=[];fillColor=none;resizable=0;rotatable=0;perimeter=centerPerimeter;snapToPoint=1;strokeWidth=3;fontSize=12;fontStyle=1;container=0;" vertex="1" parent="1">
          <mxGeometry x="627" y="638" width="20" height="20" as="geometry" />
        </mxCell>
        <mxCell id="DU5lfOHAwdRszaiGKBXR-23" value="" style="shape=waypoint;sketch=0;fillStyle=solid;size=6;pointerEvents=1;points=[];fillColor=none;resizable=0;rotatable=0;perimeter=centerPerimeter;snapToPoint=1;strokeWidth=3;fontSize=12;fontStyle=1;container=0;" vertex="1" parent="1">
          <mxGeometry x="692" y="638" width="20" height="20" as="geometry" />
        </mxCell>
        <mxCell id="DU5lfOHAwdRszaiGKBXR-24" value="d" style="text;html=1;align=center;verticalAlign=middle;resizable=0;points=[];autosize=1;strokeColor=none;fillColor=none;fontSize=12;fontStyle=1;container=0;" vertex="1" parent="1">
          <mxGeometry x="622" y="620" width="30" height="30" as="geometry" />
        </mxCell>
        <mxCell id="DU5lfOHAwdRszaiGKBXR-25" value="e" style="text;html=1;align=center;verticalAlign=middle;resizable=0;points=[];autosize=1;strokeColor=none;fillColor=none;fontSize=12;fontStyle=1;container=0;" vertex="1" parent="1">
          <mxGeometry x="687" y="620" width="30" height="30" as="geometry" />
        </mxCell>
        <mxCell id="DU5lfOHAwdRszaiGKBXR-26" value="" style="shape=waypoint;sketch=0;fillStyle=solid;size=6;pointerEvents=1;points=[];fillColor=none;resizable=0;rotatable=0;perimeter=centerPerimeter;snapToPoint=1;strokeWidth=3;fontSize=12;fontStyle=1;container=0;" vertex="1" parent="1">
          <mxGeometry x="587" y="638" width="20" height="20" as="geometry" />
        </mxCell>
        <mxCell id="DU5lfOHAwdRszaiGKBXR-27" value="c" style="text;html=1;align=center;verticalAlign=middle;resizable=0;points=[];autosize=1;strokeColor=none;fillColor=none;fontSize=12;fontStyle=1;container=0;" vertex="1" parent="1">
          <mxGeometry x="582" y="620" width="30" height="30" as="geometry" />
        </mxCell>
        <mxCell id="DU5lfOHAwdRszaiGKBXR-28" value="P1" style="text;html=1;align=center;verticalAlign=middle;resizable=0;points=[];autosize=1;strokeColor=none;fillColor=none;fontStyle=1;fontSize=14;container=0;" vertex="1" parent="1">
          <mxGeometry x="730" y="633" width="40" height="30" as="geometry" />
        </mxCell>
        <mxCell id="DU5lfOHAwdRszaiGKBXR-29" value="" style="endArrow=classic;html=1;rounded=0;fillColor=#f5f5f5;strokeColor=#666666;opacity=40;" edge="1" parent="1">
          <mxGeometry width="50" height="50" relative="1" as="geometry">
            <mxPoint x="384" y="659" as="sourcePoint" />
            <mxPoint x="404" y="715" as="targetPoint" />
            <Array as="points" />
          </mxGeometry>
        </mxCell>
        <mxCell id="DU5lfOHAwdRszaiGKBXR-30" value="" style="endArrow=classic;html=1;rounded=0;entryX=0.126;entryY=1.031;entryDx=0;entryDy=0;entryPerimeter=0;fillColor=#f5f5f5;strokeColor=#666666;opacity=40;" edge="1" parent="1">
          <mxGeometry width="50" height="50" relative="1" as="geometry">
            <mxPoint x="391" y="816.7553191489362" as="sourcePoint" />
            <mxPoint x="470" y="747" as="targetPoint" />
            <Array as="points" />
          </mxGeometry>
        </mxCell>
        <mxCell id="DU5lfOHAwdRszaiGKBXR-31" value="" style="endArrow=classic;html=1;rounded=0;fillColor=#f5f5f5;strokeColor=#666666;opacity=40;" edge="1" parent="1">
          <mxGeometry width="50" height="50" relative="1" as="geometry">
            <mxPoint x="539" y="722.9953191489362" as="sourcePoint" />
            <mxPoint x="635" y="664" as="targetPoint" />
            <Array as="points" />
          </mxGeometry>
        </mxCell>
        <mxCell id="DU5lfOHAwdRszaiGKBXR-32" value="" style="endArrow=none;html=1;rounded=0;endFill=0;startArrow=classic;startFill=1;fillColor=#f5f5f5;strokeColor=#666666;opacity=40;" edge="1" parent="1">
          <mxGeometry width="50" height="50" relative="1" as="geometry">
            <mxPoint x="712" y="795" as="sourcePoint" />
            <mxPoint x="703" y="665" as="targetPoint" />
            <Array as="points" />
          </mxGeometry>
        </mxCell>
        <mxCell id="DU5lfOHAwdRszaiGKBXR-33" value="" style="ellipse;whiteSpace=wrap;html=1;opacity=50;strokeWidth=2;fillColor=#ffbd24;strokeColor=none;fontColor=#000000;" vertex="1" parent="1">
          <mxGeometry x="330" y="620" width="70" height="43" as="geometry" />
        </mxCell>
        <mxCell id="DU5lfOHAwdRszaiGKBXR-35" value="" style="endArrow=classic;html=1;rounded=0;fillColor=#e51400;strokeColor=#B20000;dashed=1;exitX=0.714;exitY=0.65;exitDx=0;exitDy=0;exitPerimeter=0;entryX=0.25;entryY=0.5;entryDx=0;entryDy=0;entryPerimeter=0;strokeWidth=1.5;" edge="1" parent="1" source="DU5lfOHAwdRszaiGKBXR-18" target="DU5lfOHAwdRszaiGKBXR-1">
          <mxGeometry width="50" height="50" relative="1" as="geometry">
            <mxPoint x="570" y="550" as="sourcePoint" />
            <mxPoint x="620" y="500" as="targetPoint" />
          </mxGeometry>
        </mxCell>
        <mxCell id="DU5lfOHAwdRszaiGKBXR-36" value="" style="endArrow=classic;html=1;rounded=0;fillColor=#e51400;strokeColor=#B20000;dashed=1;entryX=0.655;entryY=0.85;entryDx=0;entryDy=0;entryPerimeter=0;strokeWidth=1.5;" edge="1" parent="1" target="DU5lfOHAwdRszaiGKBXR-9">
          <mxGeometry width="50" height="50" relative="1" as="geometry">
            <mxPoint x="440" y="650" as="sourcePoint" />
            <mxPoint x="644" y="743" as="targetPoint" />
          </mxGeometry>
        </mxCell>
        <mxCell id="DU5lfOHAwdRszaiGKBXR-39" value="marker" style="edgeLabel;html=1;align=center;verticalAlign=middle;resizable=0;points=[];fontColor=#FF3333;" vertex="1" connectable="0" parent="DU5lfOHAwdRszaiGKBXR-36">
          <mxGeometry x="-0.6888" y="3" relative="1" as="geometry">
            <mxPoint as="offset" />
          </mxGeometry>
        </mxCell>
        <mxCell id="DU5lfOHAwdRszaiGKBXR-38" value="C21...&lt;br&gt;C31..." style="text;html=1;align=center;verticalAlign=middle;resizable=0;points=[];autosize=1;strokeColor=none;fillColor=none;fontStyle=1;fontSize=14;container=0;" vertex="1" parent="1">
          <mxGeometry x="250" y="620" width="60" height="50" as="geometry" />
        </mxCell>
        <mxCell id="DU5lfOHAwdRszaiGKBXR-40" value="marker" style="edgeLabel;html=1;align=center;verticalAlign=middle;resizable=0;points=[];fontColor=#FF3333;" vertex="1" connectable="0" parent="1">
          <mxGeometry x="519.0004385560287" y="679.9954460754824" as="geometry" />
        </mxCell>
      </root>
    </mxGraphModel>
  </diagram>
  <diagram id="wotAuxCP-Gu4qGPqjrOm" name="P3">
    <mxGraphModel dx="638" dy="616" grid="1" gridSize="10" guides="1" tooltips="1" connect="1" arrows="1" fold="1" page="1" pageScale="1" pageWidth="827" pageHeight="1169" math="0" shadow="0">
      <root>
        <mxCell id="0" />
        <mxCell id="1" parent="0" />
        <mxCell id="6a-OkMrRQLxdRUPZRAKh-1" value="" style="line;strokeWidth=2;html=1;direction=west;fontSize=12;fontStyle=1" vertex="1" parent="1">
          <mxGeometry x="320" y="728" width="418" height="10" as="geometry" />
        </mxCell>
        <mxCell id="6a-OkMrRQLxdRUPZRAKh-2" value="" style="shape=waypoint;sketch=0;fillStyle=solid;size=6;pointerEvents=1;points=[];fillColor=none;resizable=0;rotatable=0;perimeter=centerPerimeter;snapToPoint=1;strokeWidth=3;fontSize=12;fontStyle=1" vertex="1" parent="1">
          <mxGeometry x="468" y="723" width="20" height="20" as="geometry" />
        </mxCell>
        <mxCell id="6a-OkMrRQLxdRUPZRAKh-3" value="" style="shape=waypoint;sketch=0;fillStyle=solid;size=6;pointerEvents=1;points=[];fillColor=none;resizable=0;rotatable=0;perimeter=centerPerimeter;snapToPoint=1;strokeWidth=3;fontSize=12;fontStyle=1" vertex="1" parent="1">
          <mxGeometry x="519" y="723" width="20" height="20" as="geometry" />
        </mxCell>
        <mxCell id="6a-OkMrRQLxdRUPZRAKh-4" value="g" style="text;html=1;align=center;verticalAlign=middle;resizable=0;points=[];autosize=1;strokeColor=none;fillColor=none;fontSize=12;fontStyle=1" vertex="1" parent="1">
          <mxGeometry x="463" y="702" width="30" height="30" as="geometry" />
        </mxCell>
        <mxCell id="6a-OkMrRQLxdRUPZRAKh-5" value="h" style="text;html=1;align=center;verticalAlign=middle;resizable=0;points=[];autosize=1;strokeColor=none;fillColor=none;fontSize=12;fontStyle=1" vertex="1" parent="1">
          <mxGeometry x="513.5" y="706" width="30" height="30" as="geometry" />
        </mxCell>
        <mxCell id="6a-OkMrRQLxdRUPZRAKh-6" value="" style="shape=waypoint;sketch=0;fillStyle=solid;size=6;pointerEvents=1;points=[];fillColor=none;resizable=0;rotatable=0;perimeter=centerPerimeter;snapToPoint=1;strokeWidth=3;fontSize=12;fontStyle=1" vertex="1" parent="1">
          <mxGeometry x="399" y="723" width="20" height="20" as="geometry" />
        </mxCell>
        <mxCell id="6a-OkMrRQLxdRUPZRAKh-7" value="f" style="text;html=1;align=center;verticalAlign=middle;resizable=0;points=[];autosize=1;strokeColor=none;fillColor=none;fontSize=12;fontStyle=1" vertex="1" parent="1">
          <mxGeometry x="394" y="706" width="30" height="30" as="geometry" />
        </mxCell>
        <mxCell id="6a-OkMrRQLxdRUPZRAKh-8" value="P2" style="text;html=1;align=center;verticalAlign=middle;resizable=0;points=[];autosize=1;strokeColor=none;fillColor=none;fontStyle=1;fontSize=14;" vertex="1" parent="1">
          <mxGeometry x="730" y="718" width="40" height="30" as="geometry" />
        </mxCell>
        <mxCell id="6a-OkMrRQLxdRUPZRAKh-9" value="" style="line;strokeWidth=2;html=1;direction=west;fontSize=12;fontStyle=1" vertex="1" parent="1">
          <mxGeometry x="320" y="823" width="417" height="10" as="geometry" />
        </mxCell>
        <mxCell id="6a-OkMrRQLxdRUPZRAKh-10" value="" style="shape=waypoint;sketch=0;fillStyle=solid;size=6;pointerEvents=1;points=[];fillColor=none;resizable=0;rotatable=0;perimeter=centerPerimeter;snapToPoint=1;strokeWidth=3;fontSize=12;fontStyle=1" vertex="1" parent="1">
          <mxGeometry x="519" y="818" width="20" height="20" as="geometry" />
        </mxCell>
        <mxCell id="6a-OkMrRQLxdRUPZRAKh-11" value="" style="shape=waypoint;sketch=0;fillStyle=solid;size=6;pointerEvents=1;points=[];fillColor=none;resizable=0;rotatable=0;perimeter=centerPerimeter;snapToPoint=1;strokeWidth=3;fontSize=12;fontStyle=1" vertex="1" parent="1">
          <mxGeometry x="707" y="818" width="20" height="20" as="geometry" />
        </mxCell>
        <mxCell id="6a-OkMrRQLxdRUPZRAKh-12" value="" style="shape=waypoint;sketch=0;fillStyle=solid;size=6;pointerEvents=1;points=[];fillColor=none;resizable=0;rotatable=0;perimeter=centerPerimeter;snapToPoint=1;strokeWidth=3;fontSize=12;fontStyle=1;fontColor=default;labelBackgroundColor=none;" vertex="1" parent="1">
          <mxGeometry x="374" y="818" width="20" height="20" as="geometry" />
        </mxCell>
        <mxCell id="6a-OkMrRQLxdRUPZRAKh-13" value="P3" style="text;html=1;align=center;verticalAlign=middle;resizable=0;points=[];autosize=1;strokeColor=none;fillColor=none;fontStyle=1;fontSize=14;" vertex="1" parent="1">
          <mxGeometry x="730" y="813" width="40" height="30" as="geometry" />
        </mxCell>
        <mxCell id="6a-OkMrRQLxdRUPZRAKh-14" value="i" style="text;html=1;align=center;verticalAlign=middle;resizable=0;points=[];autosize=1;strokeColor=none;fillColor=none;fontSize=12;fontStyle=1" vertex="1" parent="1">
          <mxGeometry x="369" y="801" width="30" height="30" as="geometry" />
        </mxCell>
        <mxCell id="6a-OkMrRQLxdRUPZRAKh-15" value="j" style="text;html=1;align=center;verticalAlign=middle;resizable=0;points=[];autosize=1;strokeColor=none;fillColor=none;fontSize=12;fontStyle=1" vertex="1" parent="1">
          <mxGeometry x="513.5" y="801" width="30" height="30" as="geometry" />
        </mxCell>
        <mxCell id="6a-OkMrRQLxdRUPZRAKh-16" value="k" style="text;html=1;align=center;verticalAlign=middle;resizable=0;points=[];autosize=1;strokeColor=none;fillColor=none;fontSize=12;fontStyle=1" vertex="1" parent="1">
          <mxGeometry x="702" y="801" width="30" height="30" as="geometry" />
        </mxCell>
        <mxCell id="6a-OkMrRQLxdRUPZRAKh-17" value="" style="shape=waypoint;sketch=0;fillStyle=solid;size=6;pointerEvents=1;points=[];fillColor=none;resizable=0;rotatable=0;perimeter=centerPerimeter;snapToPoint=1;strokeWidth=3;fontSize=12;fontStyle=1;container=0;" vertex="1" parent="1">
          <mxGeometry x="337" y="638" width="20" height="20" as="geometry" />
        </mxCell>
        <mxCell id="6a-OkMrRQLxdRUPZRAKh-18" value="" style="line;strokeWidth=2;html=1;direction=west;fontSize=12;fontStyle=1;container=0;" vertex="1" parent="1">
          <mxGeometry x="320" y="643" width="418" height="10" as="geometry" />
        </mxCell>
        <mxCell id="6a-OkMrRQLxdRUPZRAKh-19" value="" style="shape=waypoint;sketch=0;fillStyle=solid;size=6;pointerEvents=1;points=[];fillColor=none;resizable=0;rotatable=0;perimeter=centerPerimeter;snapToPoint=1;strokeWidth=3;fontSize=12;fontStyle=1;container=0;" vertex="1" parent="1">
          <mxGeometry x="372" y="638" width="20" height="20" as="geometry" />
        </mxCell>
        <mxCell id="6a-OkMrRQLxdRUPZRAKh-20" value="a" style="text;html=1;align=center;verticalAlign=middle;resizable=0;points=[];autosize=1;strokeColor=none;fillColor=none;fontSize=12;fontStyle=1;container=0;" vertex="1" parent="1">
          <mxGeometry x="332" y="620" width="30" height="30" as="geometry" />
        </mxCell>
        <mxCell id="6a-OkMrRQLxdRUPZRAKh-21" value="b" style="text;html=1;align=center;verticalAlign=middle;resizable=0;points=[];autosize=1;strokeColor=none;fillColor=none;fontSize=12;fontStyle=1;container=0;" vertex="1" parent="1">
          <mxGeometry x="367" y="620" width="30" height="30" as="geometry" />
        </mxCell>
        <mxCell id="6a-OkMrRQLxdRUPZRAKh-22" value="" style="shape=waypoint;sketch=0;fillStyle=solid;size=6;pointerEvents=1;points=[];fillColor=none;resizable=0;rotatable=0;perimeter=centerPerimeter;snapToPoint=1;strokeWidth=3;fontSize=12;fontStyle=1;container=0;" vertex="1" parent="1">
          <mxGeometry x="627" y="638" width="20" height="20" as="geometry" />
        </mxCell>
        <mxCell id="6a-OkMrRQLxdRUPZRAKh-23" value="" style="shape=waypoint;sketch=0;fillStyle=solid;size=6;pointerEvents=1;points=[];fillColor=none;resizable=0;rotatable=0;perimeter=centerPerimeter;snapToPoint=1;strokeWidth=3;fontSize=12;fontStyle=1;container=0;" vertex="1" parent="1">
          <mxGeometry x="692" y="638" width="20" height="20" as="geometry" />
        </mxCell>
        <mxCell id="6a-OkMrRQLxdRUPZRAKh-24" value="d" style="text;html=1;align=center;verticalAlign=middle;resizable=0;points=[];autosize=1;strokeColor=none;fillColor=none;fontSize=12;fontStyle=1;container=0;" vertex="1" parent="1">
          <mxGeometry x="622" y="620" width="30" height="30" as="geometry" />
        </mxCell>
        <mxCell id="6a-OkMrRQLxdRUPZRAKh-25" value="e" style="text;html=1;align=center;verticalAlign=middle;resizable=0;points=[];autosize=1;strokeColor=none;fillColor=none;fontSize=12;fontStyle=1;container=0;" vertex="1" parent="1">
          <mxGeometry x="687" y="620" width="30" height="30" as="geometry" />
        </mxCell>
        <mxCell id="6a-OkMrRQLxdRUPZRAKh-26" value="" style="shape=waypoint;sketch=0;fillStyle=solid;size=6;pointerEvents=1;points=[];fillColor=none;resizable=0;rotatable=0;perimeter=centerPerimeter;snapToPoint=1;strokeWidth=3;fontSize=12;fontStyle=1;container=0;" vertex="1" parent="1">
          <mxGeometry x="587" y="638" width="20" height="20" as="geometry" />
        </mxCell>
        <mxCell id="6a-OkMrRQLxdRUPZRAKh-27" value="c" style="text;html=1;align=center;verticalAlign=middle;resizable=0;points=[];autosize=1;strokeColor=none;fillColor=none;fontSize=12;fontStyle=1;container=0;" vertex="1" parent="1">
          <mxGeometry x="582" y="620" width="30" height="30" as="geometry" />
        </mxCell>
        <mxCell id="6a-OkMrRQLxdRUPZRAKh-28" value="P1" style="text;html=1;align=center;verticalAlign=middle;resizable=0;points=[];autosize=1;strokeColor=none;fillColor=none;fontStyle=1;fontSize=14;container=0;" vertex="1" parent="1">
          <mxGeometry x="730" y="633" width="40" height="30" as="geometry" />
        </mxCell>
        <mxCell id="6a-OkMrRQLxdRUPZRAKh-29" value="" style="endArrow=classic;html=1;rounded=0;fillColor=#f5f5f5;strokeColor=#666666;opacity=40;" edge="1" parent="1">
          <mxGeometry width="50" height="50" relative="1" as="geometry">
            <mxPoint x="384" y="659" as="sourcePoint" />
            <mxPoint x="404" y="715" as="targetPoint" />
            <Array as="points" />
          </mxGeometry>
        </mxCell>
        <mxCell id="6a-OkMrRQLxdRUPZRAKh-30" value="" style="endArrow=classic;html=1;rounded=0;entryX=0.126;entryY=1.031;entryDx=0;entryDy=0;entryPerimeter=0;fillColor=#f5f5f5;strokeColor=#666666;opacity=40;" edge="1" parent="1">
          <mxGeometry width="50" height="50" relative="1" as="geometry">
            <mxPoint x="391" y="816.7553191489362" as="sourcePoint" />
            <mxPoint x="470" y="747" as="targetPoint" />
            <Array as="points" />
          </mxGeometry>
        </mxCell>
        <mxCell id="6a-OkMrRQLxdRUPZRAKh-31" value="" style="endArrow=classic;html=1;rounded=0;fillColor=#f5f5f5;strokeColor=#666666;opacity=40;" edge="1" parent="1">
          <mxGeometry width="50" height="50" relative="1" as="geometry">
            <mxPoint x="539" y="722.9953191489362" as="sourcePoint" />
            <mxPoint x="635" y="664" as="targetPoint" />
            <Array as="points" />
          </mxGeometry>
        </mxCell>
        <mxCell id="6a-OkMrRQLxdRUPZRAKh-32" value="" style="endArrow=none;html=1;rounded=0;endFill=0;startArrow=classic;startFill=1;fillColor=#f5f5f5;strokeColor=#666666;opacity=40;" edge="1" parent="1">
          <mxGeometry width="50" height="50" relative="1" as="geometry">
            <mxPoint x="712" y="795" as="sourcePoint" />
            <mxPoint x="703" y="665" as="targetPoint" />
            <Array as="points" />
          </mxGeometry>
        </mxCell>
        <mxCell id="6a-OkMrRQLxdRUPZRAKh-33" value="" style="ellipse;whiteSpace=wrap;html=1;opacity=50;strokeWidth=2;fillColor=#ffbd24;strokeColor=none;fontColor=#000000;" vertex="1" parent="1">
          <mxGeometry x="329" y="625" width="70" height="33" as="geometry" />
        </mxCell>
        <mxCell id="6a-OkMrRQLxdRUPZRAKh-34" value="" style="endArrow=classic;html=1;rounded=0;fillColor=#e51400;strokeColor=#B20000;dashed=1;exitX=0.714;exitY=0.65;exitDx=0;exitDy=0;exitPerimeter=0;entryX=0.25;entryY=0.5;entryDx=0;entryDy=0;entryPerimeter=0;strokeWidth=1.5;opacity=40;textOpacity=40;" edge="1" parent="1" source="6a-OkMrRQLxdRUPZRAKh-18" target="6a-OkMrRQLxdRUPZRAKh-1">
          <mxGeometry width="50" height="50" relative="1" as="geometry">
            <mxPoint x="570" y="550" as="sourcePoint" />
            <mxPoint x="620" y="500" as="targetPoint" />
          </mxGeometry>
        </mxCell>
        <mxCell id="6a-OkMrRQLxdRUPZRAKh-35" value="" style="endArrow=classic;html=1;rounded=0;fillColor=#e51400;strokeColor=#B20000;dashed=1;entryX=0.655;entryY=0.85;entryDx=0;entryDy=0;entryPerimeter=0;strokeWidth=1.5;opacity=40;textOpacity=40;" edge="1" parent="1" target="6a-OkMrRQLxdRUPZRAKh-9">
          <mxGeometry width="50" height="50" relative="1" as="geometry">
            <mxPoint x="440" y="650" as="sourcePoint" />
            <mxPoint x="644" y="743" as="targetPoint" />
          </mxGeometry>
        </mxCell>
        <mxCell id="6a-OkMrRQLxdRUPZRAKh-36" value="marker" style="edgeLabel;html=1;align=center;verticalAlign=middle;resizable=0;points=[];fontColor=#FF3333;textOpacity=40;" vertex="1" connectable="0" parent="6a-OkMrRQLxdRUPZRAKh-35">
          <mxGeometry x="-0.6888" y="3" relative="1" as="geometry">
            <mxPoint as="offset" />
          </mxGeometry>
        </mxCell>
        <mxCell id="6a-OkMrRQLxdRUPZRAKh-37" value="C21...&lt;br&gt;C31..." style="text;html=1;align=center;verticalAlign=middle;resizable=0;points=[];autosize=1;strokeColor=none;fillColor=none;fontStyle=1;fontSize=14;container=0;" vertex="1" parent="1">
          <mxGeometry x="222" y="616.5" width="60" height="50" as="geometry" />
        </mxCell>
        <mxCell id="6a-OkMrRQLxdRUPZRAKh-38" value="marker" style="edgeLabel;html=1;align=center;verticalAlign=middle;resizable=0;points=[];fontColor=#FF3333;textOpacity=40;" vertex="1" connectable="0" parent="1">
          <mxGeometry x="519.0004385560287" y="679.9954460754824" as="geometry" />
        </mxCell>
        <mxCell id="6a-OkMrRQLxdRUPZRAKh-39" value="" style="ellipse;whiteSpace=wrap;html=1;opacity=50;strokeWidth=2;fillColor=#ffbd24;strokeColor=none;fontColor=#000000;" vertex="1" parent="1">
          <mxGeometry x="349" y="810" width="70" height="34" as="geometry" />
        </mxCell>
        <mxCell id="6a-OkMrRQLxdRUPZRAKh-40" value="C13 -&amp;gt; empty&lt;br&gt;C23 ..." style="text;html=1;align=left;verticalAlign=middle;resizable=0;points=[];autosize=1;strokeColor=none;fillColor=none;fontStyle=1;fontSize=14;container=0;" vertex="1" parent="1">
          <mxGeometry x="222" y="803" width="110" height="50" as="geometry" />
        </mxCell>
        <mxCell id="6a-OkMrRQLxdRUPZRAKh-41" value="" style="endArrow=classic;html=1;rounded=0;fillColor=#008a00;strokeColor=#005700;dashed=1;strokeWidth=1.5;entryX=0.372;entryY=0.3;entryDx=0;entryDy=0;entryPerimeter=0;" edge="1" parent="1">
          <mxGeometry width="50" height="50" relative="1" as="geometry">
            <mxPoint x="490" y="826" as="sourcePoint" />
            <mxPoint x="582.5039999999999" y="741" as="targetPoint" />
          </mxGeometry>
        </mxCell>
        <mxCell id="6a-OkMrRQLxdRUPZRAKh-42" value="" style="endArrow=classic;html=1;rounded=0;fillColor=#008a00;strokeColor=#005700;dashed=1;strokeWidth=1.5;entryX=1.267;entryY=1;entryDx=0;entryDy=0;entryPerimeter=0;exitX=0.606;exitY=0.9;exitDx=0;exitDy=0;exitPerimeter=0;" edge="1" parent="1">
          <mxGeometry width="50" height="50" relative="1" as="geometry">
            <mxPoint x="484.298" y="828" as="sourcePoint" />
            <mxPoint x="620.01" y="654" as="targetPoint" />
          </mxGeometry>
        </mxCell>
        <mxCell id="2tf7MHCCqMwDhOK6X_Yg-1" value="marker" style="edgeLabel;html=1;align=center;verticalAlign=middle;resizable=0;points=[];" vertex="1" connectable="0" parent="6a-OkMrRQLxdRUPZRAKh-42">
          <mxGeometry x="-0.3324" y="4" relative="1" as="geometry">
            <mxPoint as="offset" />
          </mxGeometry>
        </mxCell>
        <mxCell id="2tf7MHCCqMwDhOK6X_Yg-2" value="marker" style="edgeLabel;html=1;align=center;verticalAlign=middle;resizable=0;points=[];" vertex="1" connectable="0" parent="1">
          <mxGeometry x="543.5046055555002" y="779.99949132086" as="geometry" />
        </mxCell>
      </root>
    </mxGraphModel>
  </diagram>
  <diagram id="DHMc8hvv-zg6qoF7TH7i" name="P2">
    <mxGraphModel dx="638" dy="616" grid="1" gridSize="10" guides="1" tooltips="1" connect="1" arrows="1" fold="1" page="1" pageScale="1" pageWidth="827" pageHeight="1169" math="0" shadow="0">
      <root>
        <mxCell id="0" />
        <mxCell id="1" parent="0" />
        <mxCell id="mpGMrDnS7RBSC5jAtFF5-1" value="" style="line;strokeWidth=2;html=1;direction=west;fontSize=12;fontStyle=1" vertex="1" parent="1">
          <mxGeometry x="320" y="728" width="418" height="10" as="geometry" />
        </mxCell>
        <mxCell id="mpGMrDnS7RBSC5jAtFF5-2" value="" style="shape=waypoint;sketch=0;fillStyle=solid;size=6;pointerEvents=1;points=[];fillColor=none;resizable=0;rotatable=0;perimeter=centerPerimeter;snapToPoint=1;strokeWidth=3;fontSize=12;fontStyle=1" vertex="1" parent="1">
          <mxGeometry x="468" y="723" width="20" height="20" as="geometry" />
        </mxCell>
        <mxCell id="mpGMrDnS7RBSC5jAtFF5-3" value="" style="shape=waypoint;sketch=0;fillStyle=solid;size=6;pointerEvents=1;points=[];fillColor=none;resizable=0;rotatable=0;perimeter=centerPerimeter;snapToPoint=1;strokeWidth=3;fontSize=12;fontStyle=1" vertex="1" parent="1">
          <mxGeometry x="519" y="723" width="20" height="20" as="geometry" />
        </mxCell>
        <mxCell id="mpGMrDnS7RBSC5jAtFF5-4" value="g" style="text;html=1;align=center;verticalAlign=middle;resizable=0;points=[];autosize=1;strokeColor=none;fillColor=none;fontSize=12;fontStyle=1" vertex="1" parent="1">
          <mxGeometry x="463" y="702" width="30" height="30" as="geometry" />
        </mxCell>
        <mxCell id="mpGMrDnS7RBSC5jAtFF5-5" value="h" style="text;html=1;align=center;verticalAlign=middle;resizable=0;points=[];autosize=1;strokeColor=none;fillColor=none;fontSize=12;fontStyle=1" vertex="1" parent="1">
          <mxGeometry x="513.5" y="706" width="30" height="30" as="geometry" />
        </mxCell>
        <mxCell id="mpGMrDnS7RBSC5jAtFF5-6" value="" style="shape=waypoint;sketch=0;fillStyle=solid;size=6;pointerEvents=1;points=[];fillColor=none;resizable=0;rotatable=0;perimeter=centerPerimeter;snapToPoint=1;strokeWidth=3;fontSize=12;fontStyle=1" vertex="1" parent="1">
          <mxGeometry x="399" y="723" width="20" height="20" as="geometry" />
        </mxCell>
        <mxCell id="mpGMrDnS7RBSC5jAtFF5-7" value="f" style="text;html=1;align=center;verticalAlign=middle;resizable=0;points=[];autosize=1;strokeColor=none;fillColor=none;fontSize=12;fontStyle=1" vertex="1" parent="1">
          <mxGeometry x="394" y="706" width="30" height="30" as="geometry" />
        </mxCell>
        <mxCell id="mpGMrDnS7RBSC5jAtFF5-8" value="P2" style="text;html=1;align=center;verticalAlign=middle;resizable=0;points=[];autosize=1;strokeColor=none;fillColor=none;fontStyle=1;fontSize=14;" vertex="1" parent="1">
          <mxGeometry x="730" y="718" width="40" height="30" as="geometry" />
        </mxCell>
        <mxCell id="mpGMrDnS7RBSC5jAtFF5-9" value="" style="line;strokeWidth=2;html=1;direction=west;fontSize=12;fontStyle=1" vertex="1" parent="1">
          <mxGeometry x="320" y="823" width="417" height="10" as="geometry" />
        </mxCell>
        <mxCell id="mpGMrDnS7RBSC5jAtFF5-10" value="" style="shape=waypoint;sketch=0;fillStyle=solid;size=6;pointerEvents=1;points=[];fillColor=none;resizable=0;rotatable=0;perimeter=centerPerimeter;snapToPoint=1;strokeWidth=3;fontSize=12;fontStyle=1" vertex="1" parent="1">
          <mxGeometry x="519" y="818" width="20" height="20" as="geometry" />
        </mxCell>
        <mxCell id="mpGMrDnS7RBSC5jAtFF5-11" value="" style="shape=waypoint;sketch=0;fillStyle=solid;size=6;pointerEvents=1;points=[];fillColor=none;resizable=0;rotatable=0;perimeter=centerPerimeter;snapToPoint=1;strokeWidth=3;fontSize=12;fontStyle=1" vertex="1" parent="1">
          <mxGeometry x="707" y="818" width="20" height="20" as="geometry" />
        </mxCell>
        <mxCell id="mpGMrDnS7RBSC5jAtFF5-12" value="" style="shape=waypoint;sketch=0;fillStyle=solid;size=6;pointerEvents=1;points=[];fillColor=none;resizable=0;rotatable=0;perimeter=centerPerimeter;snapToPoint=1;strokeWidth=3;fontSize=12;fontStyle=1;fontColor=default;labelBackgroundColor=none;" vertex="1" parent="1">
          <mxGeometry x="374" y="818" width="20" height="20" as="geometry" />
        </mxCell>
        <mxCell id="mpGMrDnS7RBSC5jAtFF5-13" value="P3" style="text;html=1;align=center;verticalAlign=middle;resizable=0;points=[];autosize=1;strokeColor=none;fillColor=none;fontStyle=1;fontSize=14;" vertex="1" parent="1">
          <mxGeometry x="730" y="813" width="40" height="30" as="geometry" />
        </mxCell>
        <mxCell id="mpGMrDnS7RBSC5jAtFF5-14" value="i" style="text;html=1;align=center;verticalAlign=middle;resizable=0;points=[];autosize=1;strokeColor=none;fillColor=none;fontSize=12;fontStyle=1" vertex="1" parent="1">
          <mxGeometry x="369" y="801" width="30" height="30" as="geometry" />
        </mxCell>
        <mxCell id="mpGMrDnS7RBSC5jAtFF5-15" value="j" style="text;html=1;align=center;verticalAlign=middle;resizable=0;points=[];autosize=1;strokeColor=none;fillColor=none;fontSize=12;fontStyle=1" vertex="1" parent="1">
          <mxGeometry x="513.5" y="801" width="30" height="30" as="geometry" />
        </mxCell>
        <mxCell id="mpGMrDnS7RBSC5jAtFF5-16" value="k" style="text;html=1;align=center;verticalAlign=middle;resizable=0;points=[];autosize=1;strokeColor=none;fillColor=none;fontSize=12;fontStyle=1" vertex="1" parent="1">
          <mxGeometry x="702" y="801" width="30" height="30" as="geometry" />
        </mxCell>
        <mxCell id="mpGMrDnS7RBSC5jAtFF5-17" value="" style="shape=waypoint;sketch=0;fillStyle=solid;size=6;pointerEvents=1;points=[];fillColor=none;resizable=0;rotatable=0;perimeter=centerPerimeter;snapToPoint=1;strokeWidth=3;fontSize=12;fontStyle=1;container=0;" vertex="1" parent="1">
          <mxGeometry x="337" y="638" width="20" height="20" as="geometry" />
        </mxCell>
        <mxCell id="mpGMrDnS7RBSC5jAtFF5-18" value="" style="line;strokeWidth=2;html=1;direction=west;fontSize=12;fontStyle=1;container=0;" vertex="1" parent="1">
          <mxGeometry x="320" y="643" width="418" height="10" as="geometry" />
        </mxCell>
        <mxCell id="mpGMrDnS7RBSC5jAtFF5-19" value="" style="shape=waypoint;sketch=0;fillStyle=solid;size=6;pointerEvents=1;points=[];fillColor=none;resizable=0;rotatable=0;perimeter=centerPerimeter;snapToPoint=1;strokeWidth=3;fontSize=12;fontStyle=1;container=0;" vertex="1" parent="1">
          <mxGeometry x="372" y="638" width="20" height="20" as="geometry" />
        </mxCell>
        <mxCell id="mpGMrDnS7RBSC5jAtFF5-20" value="a" style="text;html=1;align=center;verticalAlign=middle;resizable=0;points=[];autosize=1;strokeColor=none;fillColor=none;fontSize=12;fontStyle=1;container=0;" vertex="1" parent="1">
          <mxGeometry x="332" y="620" width="30" height="30" as="geometry" />
        </mxCell>
        <mxCell id="mpGMrDnS7RBSC5jAtFF5-21" value="b" style="text;html=1;align=center;verticalAlign=middle;resizable=0;points=[];autosize=1;strokeColor=none;fillColor=none;fontSize=12;fontStyle=1;container=0;" vertex="1" parent="1">
          <mxGeometry x="367" y="620" width="30" height="30" as="geometry" />
        </mxCell>
        <mxCell id="mpGMrDnS7RBSC5jAtFF5-22" value="" style="shape=waypoint;sketch=0;fillStyle=solid;size=6;pointerEvents=1;points=[];fillColor=none;resizable=0;rotatable=0;perimeter=centerPerimeter;snapToPoint=1;strokeWidth=3;fontSize=12;fontStyle=1;container=0;" vertex="1" parent="1">
          <mxGeometry x="627" y="638" width="20" height="20" as="geometry" />
        </mxCell>
        <mxCell id="mpGMrDnS7RBSC5jAtFF5-23" value="" style="shape=waypoint;sketch=0;fillStyle=solid;size=6;pointerEvents=1;points=[];fillColor=none;resizable=0;rotatable=0;perimeter=centerPerimeter;snapToPoint=1;strokeWidth=3;fontSize=12;fontStyle=1;container=0;" vertex="1" parent="1">
          <mxGeometry x="692" y="638" width="20" height="20" as="geometry" />
        </mxCell>
        <mxCell id="mpGMrDnS7RBSC5jAtFF5-24" value="d" style="text;html=1;align=center;verticalAlign=middle;resizable=0;points=[];autosize=1;strokeColor=none;fillColor=none;fontSize=12;fontStyle=1;container=0;" vertex="1" parent="1">
          <mxGeometry x="622" y="620" width="30" height="30" as="geometry" />
        </mxCell>
        <mxCell id="mpGMrDnS7RBSC5jAtFF5-25" value="e" style="text;html=1;align=center;verticalAlign=middle;resizable=0;points=[];autosize=1;strokeColor=none;fillColor=none;fontSize=12;fontStyle=1;container=0;" vertex="1" parent="1">
          <mxGeometry x="687" y="620" width="30" height="30" as="geometry" />
        </mxCell>
        <mxCell id="mpGMrDnS7RBSC5jAtFF5-26" value="" style="shape=waypoint;sketch=0;fillStyle=solid;size=6;pointerEvents=1;points=[];fillColor=none;resizable=0;rotatable=0;perimeter=centerPerimeter;snapToPoint=1;strokeWidth=3;fontSize=12;fontStyle=1;container=0;" vertex="1" parent="1">
          <mxGeometry x="587" y="638" width="20" height="20" as="geometry" />
        </mxCell>
        <mxCell id="mpGMrDnS7RBSC5jAtFF5-27" value="c" style="text;html=1;align=center;verticalAlign=middle;resizable=0;points=[];autosize=1;strokeColor=none;fillColor=none;fontSize=12;fontStyle=1;container=0;" vertex="1" parent="1">
          <mxGeometry x="582" y="620" width="30" height="30" as="geometry" />
        </mxCell>
        <mxCell id="mpGMrDnS7RBSC5jAtFF5-28" value="P1" style="text;html=1;align=center;verticalAlign=middle;resizable=0;points=[];autosize=1;strokeColor=none;fillColor=none;fontStyle=1;fontSize=14;container=0;" vertex="1" parent="1">
          <mxGeometry x="730" y="633" width="40" height="30" as="geometry" />
        </mxCell>
        <mxCell id="mpGMrDnS7RBSC5jAtFF5-29" value="" style="endArrow=classic;html=1;rounded=0;fillColor=#f5f5f5;strokeColor=#666666;opacity=40;" edge="1" parent="1">
          <mxGeometry width="50" height="50" relative="1" as="geometry">
            <mxPoint x="384" y="659" as="sourcePoint" />
            <mxPoint x="404" y="715" as="targetPoint" />
            <Array as="points" />
          </mxGeometry>
        </mxCell>
        <mxCell id="mpGMrDnS7RBSC5jAtFF5-30" value="" style="endArrow=classic;html=1;rounded=0;entryX=0.126;entryY=1.031;entryDx=0;entryDy=0;entryPerimeter=0;fillColor=#f5f5f5;strokeColor=#666666;opacity=40;" edge="1" parent="1">
          <mxGeometry width="50" height="50" relative="1" as="geometry">
            <mxPoint x="391" y="816.7553191489362" as="sourcePoint" />
            <mxPoint x="470" y="747" as="targetPoint" />
            <Array as="points" />
          </mxGeometry>
        </mxCell>
        <mxCell id="mpGMrDnS7RBSC5jAtFF5-31" value="" style="endArrow=classic;html=1;rounded=0;fillColor=#f5f5f5;strokeColor=#666666;opacity=40;" edge="1" parent="1">
          <mxGeometry width="50" height="50" relative="1" as="geometry">
            <mxPoint x="539" y="722.9953191489362" as="sourcePoint" />
            <mxPoint x="635" y="664" as="targetPoint" />
            <Array as="points" />
          </mxGeometry>
        </mxCell>
        <mxCell id="mpGMrDnS7RBSC5jAtFF5-32" value="" style="endArrow=none;html=1;rounded=0;endFill=0;startArrow=classic;startFill=1;fillColor=#f5f5f5;strokeColor=#666666;opacity=40;" edge="1" parent="1">
          <mxGeometry width="50" height="50" relative="1" as="geometry">
            <mxPoint x="712" y="795" as="sourcePoint" />
            <mxPoint x="703" y="665" as="targetPoint" />
            <Array as="points" />
          </mxGeometry>
        </mxCell>
        <mxCell id="mpGMrDnS7RBSC5jAtFF5-33" value="" style="ellipse;whiteSpace=wrap;html=1;opacity=50;strokeWidth=2;fillColor=#ffbd24;strokeColor=none;fontColor=#000000;" vertex="1" parent="1">
          <mxGeometry x="329" y="625" width="70" height="33" as="geometry" />
        </mxCell>
        <mxCell id="mpGMrDnS7RBSC5jAtFF5-34" value="" style="endArrow=classic;html=1;rounded=0;fillColor=#e51400;strokeColor=#B20000;dashed=1;exitX=0.714;exitY=0.65;exitDx=0;exitDy=0;exitPerimeter=0;entryX=0.25;entryY=0.5;entryDx=0;entryDy=0;entryPerimeter=0;strokeWidth=1.5;opacity=40;textOpacity=40;" edge="1" parent="1" source="mpGMrDnS7RBSC5jAtFF5-18" target="mpGMrDnS7RBSC5jAtFF5-1">
          <mxGeometry width="50" height="50" relative="1" as="geometry">
            <mxPoint x="570" y="550" as="sourcePoint" />
            <mxPoint x="620" y="500" as="targetPoint" />
          </mxGeometry>
        </mxCell>
        <mxCell id="mpGMrDnS7RBSC5jAtFF5-35" value="" style="endArrow=classic;html=1;rounded=0;fillColor=#e51400;strokeColor=#B20000;dashed=1;entryX=0.655;entryY=0.85;entryDx=0;entryDy=0;entryPerimeter=0;strokeWidth=1.5;opacity=40;textOpacity=40;" edge="1" parent="1" target="mpGMrDnS7RBSC5jAtFF5-9">
          <mxGeometry width="50" height="50" relative="1" as="geometry">
            <mxPoint x="440" y="650" as="sourcePoint" />
            <mxPoint x="644" y="743" as="targetPoint" />
          </mxGeometry>
        </mxCell>
        <mxCell id="mpGMrDnS7RBSC5jAtFF5-36" value="marker" style="edgeLabel;html=1;align=center;verticalAlign=middle;resizable=0;points=[];fontColor=#FF3333;textOpacity=40;" vertex="1" connectable="0" parent="mpGMrDnS7RBSC5jAtFF5-35">
          <mxGeometry x="-0.6888" y="3" relative="1" as="geometry">
            <mxPoint as="offset" />
          </mxGeometry>
        </mxCell>
        <mxCell id="mpGMrDnS7RBSC5jAtFF5-37" value="C21...&lt;br&gt;C31..." style="text;html=1;align=center;verticalAlign=middle;resizable=0;points=[];autosize=1;strokeColor=none;fillColor=none;fontStyle=1;fontSize=14;container=0;" vertex="1" parent="1">
          <mxGeometry x="222" y="623" width="60" height="50" as="geometry" />
        </mxCell>
        <mxCell id="mpGMrDnS7RBSC5jAtFF5-38" value="marker" style="edgeLabel;html=1;align=center;verticalAlign=middle;resizable=0;points=[];fontColor=#FF3333;textOpacity=40;" vertex="1" connectable="0" parent="1">
          <mxGeometry x="519.0004385560287" y="679.9954460754824" as="geometry" />
        </mxCell>
        <mxCell id="mpGMrDnS7RBSC5jAtFF5-39" value="" style="ellipse;whiteSpace=wrap;html=1;opacity=50;strokeWidth=2;fillColor=#ffbd24;strokeColor=none;fontColor=#000000;" vertex="1" parent="1">
          <mxGeometry x="349" y="810" width="70" height="34" as="geometry" />
        </mxCell>
        <mxCell id="mpGMrDnS7RBSC5jAtFF5-40" value="C13 -&amp;gt; empty&lt;br&gt;C23 ..." style="text;html=1;align=left;verticalAlign=middle;resizable=0;points=[];autosize=1;strokeColor=none;fillColor=none;fontStyle=1;fontSize=14;container=0;" vertex="1" parent="1">
          <mxGeometry x="222" y="803" width="110" height="50" as="geometry" />
        </mxCell>
        <mxCell id="mpGMrDnS7RBSC5jAtFF5-41" value="" style="endArrow=classic;html=1;rounded=0;fillColor=#008a00;strokeColor=#005700;dashed=1;strokeWidth=1.5;entryX=0.372;entryY=0.3;entryDx=0;entryDy=0;entryPerimeter=0;textOpacity=40;opacity=40;" edge="1" parent="1">
          <mxGeometry width="50" height="50" relative="1" as="geometry">
            <mxPoint x="490" y="826" as="sourcePoint" />
            <mxPoint x="582.5039999999999" y="741" as="targetPoint" />
          </mxGeometry>
        </mxCell>
        <mxCell id="mpGMrDnS7RBSC5jAtFF5-42" value="" style="endArrow=classic;html=1;rounded=0;fillColor=#008a00;strokeColor=#005700;dashed=1;strokeWidth=1.5;entryX=1.267;entryY=1;entryDx=0;entryDy=0;entryPerimeter=0;exitX=0.606;exitY=0.9;exitDx=0;exitDy=0;exitPerimeter=0;textOpacity=40;opacity=40;" edge="1" parent="1">
          <mxGeometry width="50" height="50" relative="1" as="geometry">
            <mxPoint x="484.298" y="828" as="sourcePoint" />
            <mxPoint x="620.01" y="654" as="targetPoint" />
          </mxGeometry>
        </mxCell>
        <mxCell id="mpGMrDnS7RBSC5jAtFF5-43" value="marker" style="edgeLabel;html=1;align=center;verticalAlign=middle;resizable=0;points=[];textOpacity=40;fontColor=#005700;" vertex="1" connectable="0" parent="mpGMrDnS7RBSC5jAtFF5-42">
          <mxGeometry x="-0.3324" y="4" relative="1" as="geometry">
            <mxPoint as="offset" />
          </mxGeometry>
        </mxCell>
        <mxCell id="mpGMrDnS7RBSC5jAtFF5-44" value="&lt;font color=&quot;#005700&quot;&gt;marker&lt;/font&gt;" style="edgeLabel;html=1;align=center;verticalAlign=middle;resizable=0;points=[];textOpacity=40;" vertex="1" connectable="0" parent="1">
          <mxGeometry x="539.0046055555002" y="789.99949132086" as="geometry" />
        </mxCell>
        <mxCell id="mpGMrDnS7RBSC5jAtFF5-45" value="" style="ellipse;whiteSpace=wrap;html=1;opacity=50;strokeWidth=2;fillColor=#ffbd24;strokeColor=none;fontColor=#000000;" vertex="1" parent="1">
          <mxGeometry x="379" y="706" width="181" height="50" as="geometry" />
        </mxCell>
        <mxCell id="mpGMrDnS7RBSC5jAtFF5-46" value="C32 -&amp;gt; empty&lt;br&gt;C12&amp;nbsp;..." style="text;html=1;align=left;verticalAlign=middle;resizable=0;points=[];autosize=1;strokeColor=none;fillColor=none;fontStyle=1;fontSize=14;container=0;" vertex="1" parent="1">
          <mxGeometry x="227" y="708" width="110" height="50" as="geometry" />
        </mxCell>
        <mxCell id="FuqQoHjS_sDbdb3fIYZN-1" value="" style="endArrow=classic;html=1;rounded=0;fillColor=#1ba1e2;strokeColor=#006EAF;dashed=1;strokeWidth=1.5;entryX=0.163;entryY=0.3;entryDx=0;entryDy=0;entryPerimeter=0;textOpacity=40;" edge="1" parent="1" target="mpGMrDnS7RBSC5jAtFF5-18">
          <mxGeometry width="50" height="50" relative="1" as="geometry">
            <mxPoint x="599.5" y="732" as="sourcePoint" />
            <mxPoint x="692.0039999999999" y="647" as="targetPoint" />
          </mxGeometry>
        </mxCell>
        <mxCell id="DmOq8IJcNmHiYTrhEcym-1" value="&lt;font&gt;marker&lt;/font&gt;" style="edgeLabel;html=1;align=center;verticalAlign=middle;resizable=0;points=[];fontColor=#006eaf;" vertex="1" connectable="0" parent="FuqQoHjS_sDbdb3fIYZN-1">
          <mxGeometry x="-0.2241" y="1" relative="1" as="geometry">
            <mxPoint as="offset" />
          </mxGeometry>
        </mxCell>
        <mxCell id="DmOq8IJcNmHiYTrhEcym-2" value="" style="endArrow=classic;html=1;rounded=0;fillColor=#1ba1e2;strokeColor=#006EAF;dashed=1;strokeWidth=1.5;textOpacity=40;exitX=0.333;exitY=0.35;exitDx=0;exitDy=0;exitPerimeter=0;entryX=0.146;entryY=0.65;entryDx=0;entryDy=0;entryPerimeter=0;" edge="1" parent="1" source="mpGMrDnS7RBSC5jAtFF5-1" target="mpGMrDnS7RBSC5jAtFF5-9">
          <mxGeometry width="50" height="50" relative="1" as="geometry">
            <mxPoint x="609.5" y="742" as="sourcePoint" />
            <mxPoint x="670" y="820" as="targetPoint" />
          </mxGeometry>
        </mxCell>
        <mxCell id="DmOq8IJcNmHiYTrhEcym-3" value="&lt;font&gt;marker&lt;/font&gt;" style="edgeLabel;html=1;align=center;verticalAlign=middle;resizable=0;points=[];fontColor=#006eaf;" vertex="1" connectable="0" parent="DmOq8IJcNmHiYTrhEcym-2">
          <mxGeometry x="-0.2241" y="1" relative="1" as="geometry">
            <mxPoint as="offset" />
          </mxGeometry>
        </mxCell>
      </root>
    </mxGraphModel>
  </diagram>
  <diagram id="NoDuHKGWLm3oBeOFc2KP" name="P1&#39;">
    <mxGraphModel dx="765" dy="616" grid="1" gridSize="10" guides="1" tooltips="1" connect="1" arrows="1" fold="1" page="1" pageScale="1" pageWidth="827" pageHeight="1169" math="0" shadow="0">
      <root>
        <mxCell id="0" />
        <mxCell id="1" parent="0" />
        <mxCell id="BknRA-LMC3OvnWKZEqNj-1" value="" style="line;strokeWidth=2;html=1;direction=west;fontSize=12;fontStyle=1" vertex="1" parent="1">
          <mxGeometry x="320" y="728" width="418" height="10" as="geometry" />
        </mxCell>
        <mxCell id="BknRA-LMC3OvnWKZEqNj-2" value="" style="shape=waypoint;sketch=0;fillStyle=solid;size=6;pointerEvents=1;points=[];fillColor=none;resizable=0;rotatable=0;perimeter=centerPerimeter;snapToPoint=1;strokeWidth=3;fontSize=12;fontStyle=1" vertex="1" parent="1">
          <mxGeometry x="468" y="723" width="20" height="20" as="geometry" />
        </mxCell>
        <mxCell id="BknRA-LMC3OvnWKZEqNj-3" value="" style="shape=waypoint;sketch=0;fillStyle=solid;size=6;pointerEvents=1;points=[];fillColor=none;resizable=0;rotatable=0;perimeter=centerPerimeter;snapToPoint=1;strokeWidth=3;fontSize=12;fontStyle=1" vertex="1" parent="1">
          <mxGeometry x="519" y="723" width="20" height="20" as="geometry" />
        </mxCell>
        <mxCell id="BknRA-LMC3OvnWKZEqNj-4" value="g" style="text;html=1;align=center;verticalAlign=middle;resizable=0;points=[];autosize=1;strokeColor=none;fillColor=none;fontSize=12;fontStyle=1" vertex="1" parent="1">
          <mxGeometry x="463" y="702" width="30" height="30" as="geometry" />
        </mxCell>
        <mxCell id="BknRA-LMC3OvnWKZEqNj-5" value="h" style="text;html=1;align=center;verticalAlign=middle;resizable=0;points=[];autosize=1;strokeColor=none;fillColor=none;fontSize=12;fontStyle=1" vertex="1" parent="1">
          <mxGeometry x="513.5" y="706" width="30" height="30" as="geometry" />
        </mxCell>
        <mxCell id="BknRA-LMC3OvnWKZEqNj-6" value="" style="shape=waypoint;sketch=0;fillStyle=solid;size=6;pointerEvents=1;points=[];fillColor=none;resizable=0;rotatable=0;perimeter=centerPerimeter;snapToPoint=1;strokeWidth=3;fontSize=12;fontStyle=1" vertex="1" parent="1">
          <mxGeometry x="399" y="723" width="20" height="20" as="geometry" />
        </mxCell>
        <mxCell id="BknRA-LMC3OvnWKZEqNj-7" value="f" style="text;html=1;align=center;verticalAlign=middle;resizable=0;points=[];autosize=1;strokeColor=none;fillColor=none;fontSize=12;fontStyle=1" vertex="1" parent="1">
          <mxGeometry x="394" y="706" width="30" height="30" as="geometry" />
        </mxCell>
        <mxCell id="BknRA-LMC3OvnWKZEqNj-8" value="P2" style="text;html=1;align=center;verticalAlign=middle;resizable=0;points=[];autosize=1;strokeColor=none;fillColor=none;fontStyle=1;fontSize=14;" vertex="1" parent="1">
          <mxGeometry x="730" y="718" width="40" height="30" as="geometry" />
        </mxCell>
        <mxCell id="BknRA-LMC3OvnWKZEqNj-9" value="" style="line;strokeWidth=2;html=1;direction=west;fontSize=12;fontStyle=1" vertex="1" parent="1">
          <mxGeometry x="320" y="823" width="417" height="10" as="geometry" />
        </mxCell>
        <mxCell id="BknRA-LMC3OvnWKZEqNj-10" value="" style="shape=waypoint;sketch=0;fillStyle=solid;size=6;pointerEvents=1;points=[];fillColor=none;resizable=0;rotatable=0;perimeter=centerPerimeter;snapToPoint=1;strokeWidth=3;fontSize=12;fontStyle=1" vertex="1" parent="1">
          <mxGeometry x="519" y="818" width="20" height="20" as="geometry" />
        </mxCell>
        <mxCell id="BknRA-LMC3OvnWKZEqNj-11" value="" style="shape=waypoint;sketch=0;fillStyle=solid;size=6;pointerEvents=1;points=[];fillColor=none;resizable=0;rotatable=0;perimeter=centerPerimeter;snapToPoint=1;strokeWidth=3;fontSize=12;fontStyle=1" vertex="1" parent="1">
          <mxGeometry x="707" y="818" width="20" height="20" as="geometry" />
        </mxCell>
        <mxCell id="BknRA-LMC3OvnWKZEqNj-12" value="" style="shape=waypoint;sketch=0;fillStyle=solid;size=6;pointerEvents=1;points=[];fillColor=none;resizable=0;rotatable=0;perimeter=centerPerimeter;snapToPoint=1;strokeWidth=3;fontSize=12;fontStyle=1;fontColor=default;labelBackgroundColor=none;" vertex="1" parent="1">
          <mxGeometry x="374" y="818" width="20" height="20" as="geometry" />
        </mxCell>
        <mxCell id="BknRA-LMC3OvnWKZEqNj-13" value="P3" style="text;html=1;align=center;verticalAlign=middle;resizable=0;points=[];autosize=1;strokeColor=none;fillColor=none;fontStyle=1;fontSize=14;" vertex="1" parent="1">
          <mxGeometry x="730" y="813" width="40" height="30" as="geometry" />
        </mxCell>
        <mxCell id="BknRA-LMC3OvnWKZEqNj-14" value="i" style="text;html=1;align=center;verticalAlign=middle;resizable=0;points=[];autosize=1;strokeColor=none;fillColor=none;fontSize=12;fontStyle=1" vertex="1" parent="1">
          <mxGeometry x="369" y="801" width="30" height="30" as="geometry" />
        </mxCell>
        <mxCell id="BknRA-LMC3OvnWKZEqNj-15" value="j" style="text;html=1;align=center;verticalAlign=middle;resizable=0;points=[];autosize=1;strokeColor=none;fillColor=none;fontSize=12;fontStyle=1" vertex="1" parent="1">
          <mxGeometry x="513.5" y="801" width="30" height="30" as="geometry" />
        </mxCell>
        <mxCell id="BknRA-LMC3OvnWKZEqNj-16" value="k" style="text;html=1;align=center;verticalAlign=middle;resizable=0;points=[];autosize=1;strokeColor=none;fillColor=none;fontSize=12;fontStyle=1" vertex="1" parent="1">
          <mxGeometry x="702" y="801" width="30" height="30" as="geometry" />
        </mxCell>
        <mxCell id="BknRA-LMC3OvnWKZEqNj-17" value="" style="shape=waypoint;sketch=0;fillStyle=solid;size=6;pointerEvents=1;points=[];fillColor=none;resizable=0;rotatable=0;perimeter=centerPerimeter;snapToPoint=1;strokeWidth=3;fontSize=12;fontStyle=1;container=0;" vertex="1" parent="1">
          <mxGeometry x="337" y="638" width="20" height="20" as="geometry" />
        </mxCell>
        <mxCell id="BknRA-LMC3OvnWKZEqNj-18" value="" style="line;strokeWidth=2;html=1;direction=west;fontSize=12;fontStyle=1;container=0;" vertex="1" parent="1">
          <mxGeometry x="320" y="643" width="418" height="10" as="geometry" />
        </mxCell>
        <mxCell id="BknRA-LMC3OvnWKZEqNj-19" value="" style="shape=waypoint;sketch=0;fillStyle=solid;size=6;pointerEvents=1;points=[];fillColor=none;resizable=0;rotatable=0;perimeter=centerPerimeter;snapToPoint=1;strokeWidth=3;fontSize=12;fontStyle=1;container=0;" vertex="1" parent="1">
          <mxGeometry x="372" y="638" width="20" height="20" as="geometry" />
        </mxCell>
        <mxCell id="BknRA-LMC3OvnWKZEqNj-20" value="a" style="text;html=1;align=center;verticalAlign=middle;resizable=0;points=[];autosize=1;strokeColor=none;fillColor=none;fontSize=12;fontStyle=1;container=0;" vertex="1" parent="1">
          <mxGeometry x="332" y="620" width="30" height="30" as="geometry" />
        </mxCell>
        <mxCell id="BknRA-LMC3OvnWKZEqNj-21" value="b" style="text;html=1;align=center;verticalAlign=middle;resizable=0;points=[];autosize=1;strokeColor=none;fillColor=none;fontSize=12;fontStyle=1;container=0;" vertex="1" parent="1">
          <mxGeometry x="367" y="620" width="30" height="30" as="geometry" />
        </mxCell>
        <mxCell id="BknRA-LMC3OvnWKZEqNj-22" value="" style="shape=waypoint;sketch=0;fillStyle=solid;size=6;pointerEvents=1;points=[];fillColor=none;resizable=0;rotatable=0;perimeter=centerPerimeter;snapToPoint=1;strokeWidth=3;fontSize=12;fontStyle=1;container=0;" vertex="1" parent="1">
          <mxGeometry x="627" y="638" width="20" height="20" as="geometry" />
        </mxCell>
        <mxCell id="BknRA-LMC3OvnWKZEqNj-23" value="" style="shape=waypoint;sketch=0;fillStyle=solid;size=6;pointerEvents=1;points=[];fillColor=none;resizable=0;rotatable=0;perimeter=centerPerimeter;snapToPoint=1;strokeWidth=3;fontSize=12;fontStyle=1;container=0;" vertex="1" parent="1">
          <mxGeometry x="692" y="638" width="20" height="20" as="geometry" />
        </mxCell>
        <mxCell id="BknRA-LMC3OvnWKZEqNj-24" value="d" style="text;html=1;align=center;verticalAlign=middle;resizable=0;points=[];autosize=1;strokeColor=none;fillColor=none;fontSize=12;fontStyle=1;container=0;" vertex="1" parent="1">
          <mxGeometry x="622" y="620" width="30" height="30" as="geometry" />
        </mxCell>
        <mxCell id="BknRA-LMC3OvnWKZEqNj-25" value="e" style="text;html=1;align=center;verticalAlign=middle;resizable=0;points=[];autosize=1;strokeColor=none;fillColor=none;fontSize=12;fontStyle=1;container=0;" vertex="1" parent="1">
          <mxGeometry x="687" y="620" width="30" height="30" as="geometry" />
        </mxCell>
        <mxCell id="BknRA-LMC3OvnWKZEqNj-26" value="" style="shape=waypoint;sketch=0;fillStyle=solid;size=6;pointerEvents=1;points=[];fillColor=none;resizable=0;rotatable=0;perimeter=centerPerimeter;snapToPoint=1;strokeWidth=3;fontSize=12;fontStyle=1;container=0;" vertex="1" parent="1">
          <mxGeometry x="587" y="638" width="20" height="20" as="geometry" />
        </mxCell>
        <mxCell id="BknRA-LMC3OvnWKZEqNj-27" value="c" style="text;html=1;align=center;verticalAlign=middle;resizable=0;points=[];autosize=1;strokeColor=none;fillColor=none;fontSize=12;fontStyle=1;container=0;" vertex="1" parent="1">
          <mxGeometry x="582" y="620" width="30" height="30" as="geometry" />
        </mxCell>
        <mxCell id="BknRA-LMC3OvnWKZEqNj-28" value="P1" style="text;html=1;align=center;verticalAlign=middle;resizable=0;points=[];autosize=1;strokeColor=none;fillColor=none;fontStyle=1;fontSize=14;container=0;" vertex="1" parent="1">
          <mxGeometry x="730" y="633" width="40" height="30" as="geometry" />
        </mxCell>
        <mxCell id="BknRA-LMC3OvnWKZEqNj-29" value="" style="endArrow=classic;html=1;rounded=0;fillColor=#f5f5f5;strokeColor=#666666;opacity=40;" edge="1" parent="1">
          <mxGeometry width="50" height="50" relative="1" as="geometry">
            <mxPoint x="384" y="659" as="sourcePoint" />
            <mxPoint x="404" y="715" as="targetPoint" />
            <Array as="points" />
          </mxGeometry>
        </mxCell>
        <mxCell id="BknRA-LMC3OvnWKZEqNj-30" value="" style="endArrow=classic;html=1;rounded=0;entryX=0.126;entryY=1.031;entryDx=0;entryDy=0;entryPerimeter=0;fillColor=#f5f5f5;strokeColor=#666666;opacity=40;" edge="1" parent="1">
          <mxGeometry width="50" height="50" relative="1" as="geometry">
            <mxPoint x="391" y="816.7553191489362" as="sourcePoint" />
            <mxPoint x="470" y="747" as="targetPoint" />
            <Array as="points" />
          </mxGeometry>
        </mxCell>
        <mxCell id="BknRA-LMC3OvnWKZEqNj-31" value="" style="endArrow=classic;html=1;rounded=0;fillColor=#f5f5f5;strokeColor=#666666;" edge="1" parent="1">
          <mxGeometry width="50" height="50" relative="1" as="geometry">
            <mxPoint x="539" y="722.9953191489362" as="sourcePoint" />
            <mxPoint x="635" y="664" as="targetPoint" />
            <Array as="points" />
          </mxGeometry>
        </mxCell>
        <mxCell id="BknRA-LMC3OvnWKZEqNj-32" value="" style="endArrow=none;html=1;rounded=0;endFill=0;startArrow=classic;startFill=1;fillColor=#f5f5f5;strokeColor=#666666;opacity=40;" edge="1" parent="1">
          <mxGeometry width="50" height="50" relative="1" as="geometry">
            <mxPoint x="712" y="795" as="sourcePoint" />
            <mxPoint x="703" y="665" as="targetPoint" />
            <Array as="points" />
          </mxGeometry>
        </mxCell>
        <mxCell id="BknRA-LMC3OvnWKZEqNj-33" value="" style="ellipse;whiteSpace=wrap;html=1;opacity=50;strokeWidth=2;fillColor=#ffbd24;strokeColor=none;fontColor=#000000;" vertex="1" parent="1">
          <mxGeometry x="329" y="625" width="70" height="33" as="geometry" />
        </mxCell>
        <mxCell id="BknRA-LMC3OvnWKZEqNj-34" value="" style="endArrow=classic;html=1;rounded=0;fillColor=#e51400;strokeColor=#B20000;dashed=1;exitX=0.714;exitY=0.65;exitDx=0;exitDy=0;exitPerimeter=0;entryX=0.25;entryY=0.5;entryDx=0;entryDy=0;entryPerimeter=0;strokeWidth=1.5;opacity=40;textOpacity=40;" edge="1" parent="1" source="BknRA-LMC3OvnWKZEqNj-18" target="BknRA-LMC3OvnWKZEqNj-1">
          <mxGeometry width="50" height="50" relative="1" as="geometry">
            <mxPoint x="570" y="550" as="sourcePoint" />
            <mxPoint x="620" y="500" as="targetPoint" />
          </mxGeometry>
        </mxCell>
        <mxCell id="BknRA-LMC3OvnWKZEqNj-35" value="" style="endArrow=classic;html=1;rounded=0;fillColor=#e51400;strokeColor=#B20000;dashed=1;entryX=0.655;entryY=0.85;entryDx=0;entryDy=0;entryPerimeter=0;strokeWidth=1.5;opacity=40;textOpacity=40;" edge="1" parent="1" target="BknRA-LMC3OvnWKZEqNj-9">
          <mxGeometry width="50" height="50" relative="1" as="geometry">
            <mxPoint x="440" y="650" as="sourcePoint" />
            <mxPoint x="644" y="743" as="targetPoint" />
          </mxGeometry>
        </mxCell>
        <mxCell id="BknRA-LMC3OvnWKZEqNj-36" value="marker" style="edgeLabel;html=1;align=center;verticalAlign=middle;resizable=0;points=[];fontColor=#FF3333;textOpacity=40;" vertex="1" connectable="0" parent="BknRA-LMC3OvnWKZEqNj-35">
          <mxGeometry x="-0.6888" y="3" relative="1" as="geometry">
            <mxPoint as="offset" />
          </mxGeometry>
        </mxCell>
        <mxCell id="BknRA-LMC3OvnWKZEqNj-53" style="rounded=0;orthogonalLoop=1;jettySize=auto;html=1;entryX=0.4;entryY=0.967;entryDx=0;entryDy=0;entryPerimeter=0;strokeWidth=2;" edge="1" parent="1" source="BknRA-LMC3OvnWKZEqNj-37" target="BknRA-LMC3OvnWKZEqNj-52">
          <mxGeometry relative="1" as="geometry" />
        </mxCell>
        <mxCell id="BknRA-LMC3OvnWKZEqNj-37" value="C21...&lt;br&gt;C31..." style="text;html=1;align=center;verticalAlign=middle;resizable=0;points=[];autosize=1;strokeColor=none;fillColor=none;fontStyle=1;fontSize=14;container=0;" vertex="1" parent="1">
          <mxGeometry x="222" y="623" width="60" height="50" as="geometry" />
        </mxCell>
        <mxCell id="BknRA-LMC3OvnWKZEqNj-38" value="marker" style="edgeLabel;html=1;align=center;verticalAlign=middle;resizable=0;points=[];fontColor=#FF3333;textOpacity=40;" vertex="1" connectable="0" parent="1">
          <mxGeometry x="519.0004385560287" y="679.9954460754824" as="geometry" />
        </mxCell>
        <mxCell id="BknRA-LMC3OvnWKZEqNj-39" value="" style="ellipse;whiteSpace=wrap;html=1;opacity=50;strokeWidth=2;fillColor=#ffbd24;strokeColor=none;fontColor=#000000;" vertex="1" parent="1">
          <mxGeometry x="349" y="810" width="70" height="34" as="geometry" />
        </mxCell>
        <mxCell id="BknRA-LMC3OvnWKZEqNj-40" value="C13 -&amp;gt; empty&lt;br&gt;C23 ..." style="text;html=1;align=left;verticalAlign=middle;resizable=0;points=[];autosize=1;strokeColor=none;fillColor=none;fontStyle=1;fontSize=14;container=0;" vertex="1" parent="1">
          <mxGeometry x="222" y="803" width="110" height="50" as="geometry" />
        </mxCell>
        <mxCell id="BknRA-LMC3OvnWKZEqNj-41" value="" style="endArrow=classic;html=1;rounded=0;fillColor=#008a00;strokeColor=#005700;dashed=1;strokeWidth=1.5;entryX=0.372;entryY=0.3;entryDx=0;entryDy=0;entryPerimeter=0;textOpacity=40;opacity=40;" edge="1" parent="1">
          <mxGeometry width="50" height="50" relative="1" as="geometry">
            <mxPoint x="490" y="826" as="sourcePoint" />
            <mxPoint x="582.5039999999999" y="741" as="targetPoint" />
          </mxGeometry>
        </mxCell>
        <mxCell id="BknRA-LMC3OvnWKZEqNj-42" value="" style="endArrow=classic;html=1;rounded=0;fillColor=#008a00;strokeColor=#005700;dashed=1;strokeWidth=1.5;exitX=0.606;exitY=0.9;exitDx=0;exitDy=0;exitPerimeter=0;textOpacity=40;" edge="1" parent="1">
          <mxGeometry width="50" height="50" relative="1" as="geometry">
            <mxPoint x="484.298" y="828" as="sourcePoint" />
            <mxPoint x="620" y="654" as="targetPoint" />
          </mxGeometry>
        </mxCell>
        <mxCell id="BknRA-LMC3OvnWKZEqNj-43" value="marker" style="edgeLabel;html=1;align=center;verticalAlign=middle;resizable=0;points=[];fontColor=#005700;" vertex="1" connectable="0" parent="BknRA-LMC3OvnWKZEqNj-42">
          <mxGeometry x="-0.3324" y="4" relative="1" as="geometry">
            <mxPoint as="offset" />
          </mxGeometry>
        </mxCell>
        <mxCell id="BknRA-LMC3OvnWKZEqNj-44" value="&lt;font color=&quot;#005700&quot;&gt;marker&lt;/font&gt;" style="edgeLabel;html=1;align=center;verticalAlign=middle;resizable=0;points=[];textOpacity=40;" vertex="1" connectable="0" parent="1">
          <mxGeometry x="539.0046055555002" y="789.99949132086" as="geometry" />
        </mxCell>
        <mxCell id="BknRA-LMC3OvnWKZEqNj-45" value="" style="ellipse;whiteSpace=wrap;html=1;opacity=50;strokeWidth=2;fillColor=#ffbd24;strokeColor=none;fontColor=#000000;" vertex="1" parent="1">
          <mxGeometry x="379" y="706" width="181" height="50" as="geometry" />
        </mxCell>
        <mxCell id="BknRA-LMC3OvnWKZEqNj-46" value="C32 -&amp;gt; empty&lt;br&gt;C12&amp;nbsp;..." style="text;html=1;align=left;verticalAlign=middle;resizable=0;points=[];autosize=1;strokeColor=none;fillColor=none;fontStyle=1;fontSize=14;container=0;" vertex="1" parent="1">
          <mxGeometry x="227" y="708" width="110" height="50" as="geometry" />
        </mxCell>
        <mxCell id="BknRA-LMC3OvnWKZEqNj-47" value="" style="endArrow=classic;html=1;rounded=0;fillColor=#1ba1e2;strokeColor=#006EAF;dashed=1;strokeWidth=1.5;entryX=0.163;entryY=0.3;entryDx=0;entryDy=0;entryPerimeter=0;fontStyle=0" edge="1" parent="1" target="BknRA-LMC3OvnWKZEqNj-18">
          <mxGeometry width="50" height="50" relative="1" as="geometry">
            <mxPoint x="599.5" y="732" as="sourcePoint" />
            <mxPoint x="692.0039999999999" y="647" as="targetPoint" />
          </mxGeometry>
        </mxCell>
        <mxCell id="BknRA-LMC3OvnWKZEqNj-48" value="&lt;font&gt;marker&lt;/font&gt;" style="edgeLabel;html=1;align=center;verticalAlign=middle;resizable=0;points=[];fontColor=#006eaf;" vertex="1" connectable="0" parent="BknRA-LMC3OvnWKZEqNj-47">
          <mxGeometry x="-0.2241" y="1" relative="1" as="geometry">
            <mxPoint as="offset" />
          </mxGeometry>
        </mxCell>
        <mxCell id="BknRA-LMC3OvnWKZEqNj-49" value="" style="endArrow=classic;html=1;rounded=0;fillColor=#1ba1e2;strokeColor=#006EAF;dashed=1;strokeWidth=1.5;textOpacity=40;exitX=0.333;exitY=0.35;exitDx=0;exitDy=0;exitPerimeter=0;entryX=0.146;entryY=0.65;entryDx=0;entryDy=0;entryPerimeter=0;opacity=40;" edge="1" parent="1" source="BknRA-LMC3OvnWKZEqNj-1" target="BknRA-LMC3OvnWKZEqNj-9">
          <mxGeometry width="50" height="50" relative="1" as="geometry">
            <mxPoint x="609.5" y="742" as="sourcePoint" />
            <mxPoint x="670" y="820" as="targetPoint" />
          </mxGeometry>
        </mxCell>
        <mxCell id="BknRA-LMC3OvnWKZEqNj-50" value="&lt;font&gt;marker&lt;/font&gt;" style="edgeLabel;html=1;align=center;verticalAlign=middle;resizable=0;points=[];fontColor=#006eaf;textOpacity=40;" vertex="1" connectable="0" parent="BknRA-LMC3OvnWKZEqNj-49">
          <mxGeometry x="-0.2241" y="1" relative="1" as="geometry">
            <mxPoint as="offset" />
          </mxGeometry>
        </mxCell>
        <mxCell id="BknRA-LMC3OvnWKZEqNj-51" value="" style="endArrow=classic;html=1;rounded=0;strokeWidth=3;entryX=1;entryY=0.35;entryDx=0;entryDy=0;entryPerimeter=0;fillColor=#f0a30a;strokeColor=#BD7000;" edge="1" parent="1">
          <mxGeometry width="50" height="50" relative="1" as="geometry">
            <mxPoint x="670" y="587.5" as="sourcePoint" />
            <mxPoint x="670" y="638" as="targetPoint" />
          </mxGeometry>
        </mxCell>
        <mxCell id="BknRA-LMC3OvnWKZEqNj-52" value="time1: C31&amp;lt; message() &amp;gt;" style="text;html=1;align=center;verticalAlign=middle;resizable=0;points=[];autosize=1;strokeColor=none;fillColor=none;fontStyle=1;fontSize=12;container=0;" vertex="1" parent="1">
          <mxGeometry x="224" y="577" width="160" height="30" as="geometry" />
        </mxCell>
        <mxCell id="utqaNuhGyw1zmmVMNyD_-1" style="rounded=0;orthogonalLoop=1;jettySize=auto;html=1;strokeWidth=2;" edge="1" parent="1" target="utqaNuhGyw1zmmVMNyD_-2" source="BknRA-LMC3OvnWKZEqNj-52">
          <mxGeometry relative="1" as="geometry">
            <mxPoint x="508" y="620" as="sourcePoint" />
          </mxGeometry>
        </mxCell>
        <mxCell id="utqaNuhGyw1zmmVMNyD_-2" value="time2: C21&amp;lt; message(h-&amp;gt;d) &amp;gt;" style="text;html=1;align=center;verticalAlign=middle;resizable=0;points=[];autosize=1;strokeColor=none;fillColor=none;fontStyle=1;fontSize=12;container=0;" vertex="1" parent="1">
          <mxGeometry x="209" y="523" width="190" height="30" as="geometry" />
        </mxCell>
        <mxCell id="utqaNuhGyw1zmmVMNyD_-3" value="" style="endArrow=classic;html=1;rounded=0;strokeWidth=3;entryX=1;entryY=0.35;entryDx=0;entryDy=0;entryPerimeter=0;fillColor=#f0a30a;strokeColor=#BD7000;" edge="1" parent="1">
          <mxGeometry width="50" height="50" relative="1" as="geometry">
            <mxPoint x="621" y="587.5" as="sourcePoint" />
            <mxPoint x="621" y="638" as="targetPoint" />
          </mxGeometry>
        </mxCell>
        <mxCell id="utqaNuhGyw1zmmVMNyD_-5" value="time1" style="text;html=1;align=center;verticalAlign=middle;resizable=0;points=[];autosize=1;strokeColor=none;fillColor=none;fontStyle=1" vertex="1" parent="1">
          <mxGeometry x="597" y="560" width="50" height="30" as="geometry" />
        </mxCell>
        <mxCell id="utqaNuhGyw1zmmVMNyD_-6" value="time2" style="text;html=1;align=center;verticalAlign=middle;resizable=0;points=[];autosize=1;strokeColor=none;fillColor=none;fontStyle=1" vertex="1" parent="1">
          <mxGeometry x="642" y="560" width="50" height="30" as="geometry" />
        </mxCell>
      </root>
    </mxGraphModel>
  </diagram>
</mxfile>
